<svg xmlns="http://www.w3.org/2000/svg" id="Layer_2" viewBox="0 0 1046.29 790.3"><defs><style>.cls-1{opacity:.1;}.cls-2{fill:#e95815;}.cls-3{fill:#ef6535;}.cls-4{fill:#ff722c;}.cls-5{fill:#9d9d9c;}.cls-6{fill:#bbb;}.cls-7{fill:#e0e0e0;}.cls-8{fill:#1d1d1b;}.cls-9{fill:#706f6f;}.cls-10,.cls-11{fill:#959595;}.cls-12{fill:#37d7ff;}.cls-13{fill:#3c3c3b;}.cls-14{fill:#44aab6;}.cls-15{fill:none;stroke:#9d9d9c;stroke-width:1.4px;}.cls-15,.cls-16{stroke-miterlimit:10;}.cls-17{opacity:.2;}.cls-18,.cls-19{opacity:.25;}.cls-20{opacity:.5;}.cls-16{fill:#575756;stroke:#1d1d1b;stroke-width:.56px;}.cls-19{fill:#fff;}.cls-11{opacity:.47;}</style></defs><g id="Layer_1-2"><ellipse class="cls-18" cx="543.41" cy="766.01" rx="24.22" ry="502.89" transform="translate(-224.54 1306.68) rotate(-89.8)"></ellipse><g><path class="cls-2" d="M374.56,572.62c9.66,18.87,18.77,38.1,26.74,57.73,4.02,9.81,7.76,19.73,11.09,29.76,3.36,10.03,6.38,20.19,8.71,30.47l24.52-.79c1.72-11.42,2.69-22.89,3.27-34.38,.61-11.5,.75-23,.57-34.48-.3-22.99-1.88-45.87-4.18-68.72l-2.66-18.72c-3.67-25.85-30.42-41.58-54.8-32.23h0c-23.18,8.89-33.04,36.31-20.84,57.93l7.58,13.42Z"></path><path class="cls-18" d="M367.42,559.96c-12.43-22.03-2.39-49.96,21.23-59.02h0s37.25,77.31,46.1,189.2l-13.65,.44c-2.33-10.28-5.36-20.44-8.71-30.47-3.32-10.03-7.06-19.95-11.09-29.76-7.97-19.63-17.08-38.86-26.74-57.73l-7.14-12.65Z"></path><circle class="cls-2" cx="427.33" cy="691.92" r="28.14"></circle><path class="cls-2" d="M362.14,607.18l10.78,130.9,15.69,10.94c4.19,2.92,2.1,9.51-3.01,9.48l-40.57-.26c-7.73-.05-14.44-5.35-16.27-12.86l-37-151.42,70.4,13.22Z"></path><path class="cls-2" d="M181.55,606.03l13.43,130.92-15.82,10.74c-4.23,2.87-2.22,9.48,2.89,9.51l38.36,.24c8.71,.06,16.02-6.53,16.89-15.19l14.81-148.56-70.56,12.33Z"></path><path class="cls-18" d="M310.45,670.54l-18.71-76.59,70.4,13.22,4.81,58.43c-16.64,1.68-39.39,3.84-56.49,4.93Z"></path><polygon class="cls-18" points="252.11 593.7 244.45 670.48 188.41 672.91 181.55 606.03 252.11 593.7"></polygon><path class="cls-2" d="M286.12,169.13l271.09,423.65c10.03,15.68-.81,36.32-19.42,36.95L24.87,647.08c-18.6,.63-30.82-19.23-21.87-35.55L244.84,170.53c8.77-15.99,31.46-16.76,41.29-1.4Z"></path><path class="cls-20" d="M259.7,323.04c-20.28,11.43-27.19,42.77-10.93,27.31,16.26-15.46,25.01-18.05,38.65-20.67,13.64-2.62-.6-21.93-27.72-6.65Z"></path><path class="cls-20" d="M347.62,318.89c17.6,5.29,28.33,33.36,13.13,23.1-15.2-10.27-22.39-10.31-33.36-9.02-10.97,1.29-3.31-21.15,20.23-14.08Z"></path><path class="cls-20" d="M231.12,460.78l125.21,21.95c4.79,.84,6.73,6.69,3.36,10.2-18.94,19.74-73.06,61.57-134.57-22.58-3.23-4.41,.61-10.52,5.99-9.57Z"></path><path class="cls-20" d="M289.75,365.62c-7.22,.43-12.72,6.63-12.29,13.84l1.86,31.36c.43,7.22,6.63,12.72,13.84,12.29,7.22-.43,12.72-6.63,12.29-13.84l-1.86-31.36c-.43-7.22-6.63-12.72-13.84-12.29Z"></path><path class="cls-20" d="M329.24,365.62c-7.22,.43-12.72,6.63-12.29,13.84l1.86,31.36c.43,7.22,6.63,12.72,13.84,12.29,7.22-.43,12.72-6.63,12.29-13.84l-1.86-31.36c-.43-7.22-6.63-12.72-13.84-12.29Z"></path><path class="cls-19" d="M55.67,646.04L289.18,173.91h0l-3.06-4.78c-9.83-15.36-32.52-14.59-41.29,1.4L3,611.53c-8.95,16.32,3.27,36.18,21.87,35.55l30.8-1.04Z"></path><path class="cls-18" d="M479.78,631.69l58.02-1.96c18.6-.63,29.45-21.27,19.42-36.95L318.42,219.6l161.36,412.08Z"></path><path class="cls-2" d="M188.86,571.04c-7.94,19.65-15.3,39.62-21.49,59.88-3.13,10.13-5.97,20.35-8.39,30.63-2.45,10.29-4.56,20.68-5.96,31.13l-24.5,1.4c-2.74-11.22-4.72-22.56-6.32-33.95-1.63-11.4-2.8-22.84-3.64-34.29-1.75-22.92-2.22-45.85-1.96-68.82l.98-18.89c1.36-26.08,26.6-44.13,51.71-36.99h0c23.88,6.79,36.15,33.22,25.92,55.84l-6.35,14.05Z"></path><path class="cls-18" d="M168.94,501.05c-5.97,17.53-29.24,92.45-28.67,192.36l-11.73,.67c-2.74-11.22-4.72-22.56-6.32-33.95-1.63-11.4-2.8-22.84-3.64-34.29-1.75-22.92-2.22-45.85-1.96-68.82l.98-18.89c1.35-25.95,26.35-43.94,51.34-37.08Z"></path><circle class="cls-2" cx="138.66" cy="710.4" r="28.14"></circle></g><g><g><g><path class="cls-3" d="M915.6,449.87s-.02,0-.03,.01c-20.95,13.6-49.26,10.57-66.78-8.4-19.58-21.2-18.26-54.25,2.94-73.83,10.01-9.24,22.66-13.82,35.29-13.86h0s30.05-3.89,46.44-8.53c16.49-4.67,22.34-11.89-4.63-56.03-26.97-44.14,30.93-20.58,37.92-11.42,6.98,9.16,60.28,76.31,44.06,107.02-16.22,30.71-82.1,58.92-95.19,65.04Z"></path><path class="cls-18" d="M928.81,289.24c-4.9-8.02-6.99-13.8-7.1-17.85,7.43,9.61,24.25,32.21,37.14,55.99,17.04,31.44-4.31,50.69-32.52,55.09-23.26,3.63-73.73,24.77-90.72,32.07-2.75-16.75,2.7-34.51,16.1-46.89,10.01-9.24,22.66-13.82,35.29-13.86h0s30.05-3.89,46.44-8.53c16.49-4.67,22.34-11.89-4.63-56.03Z"></path></g><circle class="cls-4" cx="941.32" cy="271.29" r="35.52"></circle></g><path class="cls-2" d="M790.36,568.95l13.6,165.22,19.8,13.81c5.29,3.69,2.65,12-3.8,11.96l-51.21-.33c-9.76-.06-18.22-6.75-20.54-16.23l-46.7-191.12,88.85,16.69Z"></path><path class="cls-2" d="M562.43,567.5l16.95,165.24-19.97,13.55c-5.34,3.62-2.8,11.97,3.65,12.01l48.42,.31c10.99,.07,20.22-8.24,21.31-19.17l18.7-187.5-89.06,15.56Z"></path><path class="cls-18" d="M725.13,648.93l-23.62-96.67,88.85,16.69,6.07,73.75c-21,2.12-49.72,4.85-71.31,6.23Z"></path><polygon class="cls-18" points="651.49 551.94 641.83 648.85 571.09 651.92 562.43 567.5 651.49 551.94"></polygon><path class="cls-2" d="M694.42,16.06l342.17,534.72c12.66,19.79-1.03,45.84-24.51,46.63l-647.41,21.9c-23.48,.79-38.9-24.27-27.6-44.87L642.31,17.82c11.07-20.18,39.71-21.15,52.11-1.76Z"></path><path class="cls-20" d="M645.75,233.89c-25.59,14.42-34.31,53.98-13.8,34.48,20.52-19.51,31.56-22.78,48.79-26.09,17.22-3.31-.76-27.68-34.99-8.39Z"></path><path class="cls-20" d="M756.72,228.65c22.22,6.67,35.75,42.11,16.57,29.15-19.18-12.96-28.26-13.01-42.11-11.38-13.85,1.63-4.18-26.7,25.54-17.77Z"></path><path class="cls-20" d="M646.56,380.24s15.36,8.6,46.78,14.06c32.5,5.65,52.08,3.14,52.08,3.14,3.79,.66,5.31,5.29,2.64,8.08-14.99,15.69-57.81,48.94-106.26-17.68-2.54-3.49,.5-8.34,4.75-7.6Z"></path><path class="cls-20" d="M679.73,274.42c-9.11,.54-16.06,8.36-15.51,17.47l2.35,39.58c.54,9.11,8.36,16.06,17.47,15.51,9.11-.54,16.06-8.36,15.51-17.47l-2.35-39.58c-.54-9.11-8.36-16.06-17.47-15.51Z"></path><path class="cls-20" d="M729.56,274.42c-9.11,.54-16.06,8.36-15.51,17.47l2.35,39.58c.54,9.11,8.36,16.06,17.47,15.51,9.11-.54,16.06-8.36,15.51-17.47l-2.35-39.58c-.54-9.11-8.36-16.06-17.47-15.51Z"></path><path class="cls-19" d="M403.54,618L698.28,22.09h0l-3.86-6.03c-12.41-19.39-41.04-18.42-52.11,1.76L337.06,574.44c-11.3,20.6,4.12,45.67,27.6,44.87l38.88-1.32Z"></path><path class="cls-18" d="M938.85,599.89l73.23-2.48c23.48-.79,37.17-26.84,24.51-46.63L735.19,79.77l203.66,520.12Z"></path><g><path class="cls-17" d="M626.26,623.09c-.05-.15-.12-.25-.18-.38-.05-.22-.1-.44-.18-.67-.5-1.44-1.45-1.87-2.18-1.99,.39-.86,.76-2.14,.3-3.48-.18-.53-.36-1.03-.52-1.51-.08-.23-.16-.46-.23-.68-.26-.76-.47-1.38-.61-1.77-.03-.09-.06-.17-.09-.25l-.05-.13c-.23-.67-.38-1.1-.38-1.1l-1.6-.49c.46-.63,.83-1.75,.17-3.66-.13-.38-.3-.87-.49-1.43-.21-.62-.47-1.36-.75-2.18-.06-.19-.13-.38-.2-.57-.53-1.54-1.08-3.13-1.43-4.15-.04-.13-.09-.26-.13-.38-.14-.39-.23-.67-.23-.67h0c4.78-3.71,6.93-10.16,4.85-16.19-.07-.22-.17-.42-.25-.63-.06-.22-.11-.43-.19-.65-1.41-4.1-4.49-7.15-8.21-8.68,4.06-4.4,4.9-9.47,4.92-9.63,.32-1.44,.49-2.93,.49-4.44,0-9.73-8.47-18.71-17.64-20.63-.33-5.26-3.73-16.9-5-17.93-1.65-1.35-5.69,2.45-6.29,4.39,0,0,.97,9.68,1.87,15.15-7.8,2.81-13.41,10.26-13.41,19.02,0,4.13,1.25,8.08,3.6,11.48-3.81,1.66-6.77,5.13-7.57,9.5l-3.43,18.71c-.71,3.88,1.88,7.65,5.77,8.36l2.54,.47c.44,.31,.89,.6,1.37,.86h0l-5.23,28.52h0l-.07,.37s3.26,2.66,5.3,3.04c2.04,.39,3.73-1.18,4.21-3.79,.03-.15,.02-.27,.03-.41,.06-.22,.13-.44,.17-.67,.28-1.5-.34-2.34-.92-2.8,.76-.56,1.71-1.49,1.96-2.88,.07-.37,.13-.73,.2-1.08h0c.14-.75,.27-1.47,.39-2.11,.05-.29,.1-.52,.13-.73,.19-1.03,.31-1.72,.31-1.72l-1.15-1.22c.71-.32,1.58-1.11,1.95-3.1,.21-1.14,.57-3.13,.97-5.31,.15-.81,.29-1.6,.42-2.29,0-.04,.02-.08,.02-.12,.13-.7,.23-1.26,.3-1.62,.02-.09,.03-.18,.05-.28l.03-.15h0c.51-.09,1.02-.19,1.51-.32l2.89,.53c1.51,.28,2.99,.04,4.29-.56l2.51,22.49h0l.04,.37s3.89,1.6,5.95,1.39c2.06-.22,3.23-2.2,2.94-4.84-.02-.15-.06-.27-.09-.4,0-.23,0-.45-.03-.69-.15-1.32-.8-1.97-1.42-2.3-.09-.05-.18-.08-.27-.11,.57-.75,1.2-1.92,1.05-3.33-.04-.38-.08-.74-.12-1.1h0c-.1-.88-.19-1.73-.27-2.45-.01-.1-.02-.21-.03-.3-.12-1.11-.21-1.86-.21-1.86l-1.46-.83c.58-.51,1.19-1.52,.97-3.53-.03-.3-.08-.69-.12-1.1h0c-.06-.57-.15-1.33-.24-2.14-.1-.9-.21-1.88-.32-2.89-.03-.26-.06-.5-.08-.75-.11-1.01-.23-2.03-.33-2.99,.1-.05,.19-.1,.29-.14,.45,.04,.91,.05,1.37,.05h0l9.43,27.42h0l.12,.35s4.15,.72,6.11,.05c1.97-.66,2.67-2.86,1.81-5.36Zm-40.84-48.32c.13-.71,.47-1.33,.93-1.82,1.25,.96,2.79,1.95,4.57,2.77-.54,.51-1.04,1.05-1.5,1.63l-3.01-.55c-.73-.13-1.22-.84-1.08-1.57l.08-.46Zm9.71-1.82c-.94,.4-1.82,.9-2.64,1.48-1.7-.7-3.19-1.58-4.42-2.47,.48-.12,1-.16,1.52-.06l5.21,.96c.12,.02,.22,.06,.33,.1Zm-11.31-4.89c-2.21-3.12-3.38-6.81-3.38-10.65,0-7.87,4.97-14.59,11.93-17.23,.15,.76,.3,1.35,.44,1.64,.97,2.1,8.89,1.71,9.25-.6,.04-.29-.47-1.79-.49-2.44,8.12,1.92,15.74,9.92,15.74,18.63,0,1.37-.15,2.73-.46,4.1,0,.05-.81,4.96-4.68,8.99l.67,.65c-2.93-.99-6.2-1.07-9.35,.01-.54,.19-1.06,.41-1.57,.65-.15-.01-.3-.01-.45-.02-1.61-1.29-3.51-2.26-5.67-2.65l-2.79-.51h0l-3.32-.61c-1.95-.36-3.87-.21-5.67,.28-.13-.15-.2-.25-.21-.25Z"></path><g><g><path class="cls-10" d="M604.55,596.04l10.04,29.16s4.15,.72,6.11,.05c1.97-.66,2.67-2.86,1.81-5.36-.86-2.51-3.12-1.99-3.12-1.99,0,0,1.68-2.2,.88-4.52l-1.51-4.38-2.73-.84s2.12-.93,.94-4.35l-5.06-14.72-7.36,6.95Z"></path><path class="cls-10" d="M600.17,569.24c-7.57,2.6-11.59,10.85-8.99,18.42,2.6,7.57,10.85,11.59,18.42,8.99,7.57-2.6,11.59-10.85,8.99-18.42-2.6-7.57-10.85-11.59-18.42-8.99Zm3.28,9.53c-2.24,.77-4.69-.42-5.46-2.66-.77-2.24,.42-4.69,2.66-5.46,2.24-.77,4.69,.42,5.46,2.66,.77,2.24-.42,4.69-2.66,5.46Z"></path><g><path class="cls-10" d="M618.6,614.07c.37,1.06,.42,2.78,.42,2.78,0,0,1.68-2.2,.88-4.52l-1.51-4.38-2.73-.84,.95,1.22,1.98,5.74Z"></path><path class="cls-10" d="M620.06,618.32l1.69,4.91c.83-1.03,1-2.63,.39-4.39-.86-2.51-3.12-1.99-3.12-1.99,0,0,.62,.26,1.04,1.47Z"></path><path class="cls-10" d="M616.61,602.76l-2.87-8.34-2.01-.22s3.65,10.52,3.87,11.16c.22,.64,.07,1.76,.07,1.76,0,0,2.12-.93,.94-4.35Z"></path></g><path class="cls-6" d="M599.73,567.97c-7.57,2.6-11.59,10.85-8.99,18.42,2.6,7.57,10.85,11.59,18.42,8.99,7.57-2.6,11.59-10.85,8.99-18.42-2.6-7.57-10.85-11.59-18.42-8.99Zm3.23,9.4c-2.24,.77-4.69-.42-5.46-2.66-.77-2.24,.42-4.69,2.66-5.46,2.24-.77,4.69,.42,5.46,2.66,.77,2.24-.42,4.69-2.66,5.46Z"></path><path class="cls-6" d="M608.39,595.35l.53,1.54,9.5,27.6s1.09,.01,1.92-.28c1.96-.68,2.67-2.86,1.81-5.36-.86-2.51-3.12-1.99-3.12-1.99,0,0,1.68-2.2,.88-4.52l-1.51-4.38-2.73-.84s2.12-.93,.94-4.35c-.79-2.31-3.44-4.47-4.41-7.3l-.65-1.76-3.16,1.64Z"></path><path class="cls-7" d="M616.34,624.42c.65,.05,1.39,.09,2.08,.07l-9.94-28.88-1.68,1.03,9.54,27.77Z"></path><polygon class="cls-6" points="606.8 596.64 605.03 597.44 614.46 624.85 616.34 624.42 606.8 596.64"></polygon><rect class="cls-11" x="601.03" y="586.74" width="11.09" height="1.6" rx=".25" ry=".25" transform="translate(-158.17 229.35) rotate(-18.99)"></rect></g><g><path class="cls-10" d="M594.05,597.11l3.42,30.65s3.89,1.6,5.95,1.39,3.23-2.2,2.94-4.84-2.61-2.62-2.61-2.62c0,0,2.12-1.78,1.85-4.21l-.51-4.61-2.48-1.42s2.27-.45,1.87-4.04l-1.73-15.47-8.7,5.18Z"></path><path class="cls-10" d="M595.63,570c-7.96,.89-13.68,8.06-12.8,16.01,.89,7.96,8.06,13.68,16.01,12.8,7.96-.89,13.68-8.06,12.8-16.01s-8.06-13.68-16.01-12.8Zm1.12,10.02c-2.36,.26-4.48-1.43-4.74-3.79-.26-2.36,1.43-4.48,3.79-4.74,2.36-.26,4.48,1.43,4.74,3.79,.26,2.36-1.43,4.48-3.79,4.74Z"></path><g><path class="cls-10" d="M603.82,617.78c.12,1.12-.19,2.81-.19,2.81,0,0,2.12-1.78,1.85-4.21l-.51-4.61-2.48-1.42,.66,1.4,.67,6.03Z"></path><path class="cls-10" d="M604.32,622.24l.58,5.16c1.04-.82,1.55-2.35,1.34-4.2-.29-2.63-2.61-2.62-2.61-2.62,0,0,.55,.39,.69,1.66Z"></path><path class="cls-10" d="M604.35,606.3l-.98-8.76-1.91-.65s1.26,11.06,1.34,11.73c.07,.67-.32,1.73-.32,1.73,0,0,2.27-.45,1.87-4.04Z"></path></g><path class="cls-6" d="M595.48,568.66c-7.96,.89-13.68,8.06-12.8,16.01,.89,7.96,8.06,13.68,16.01,12.8,7.96-.89,13.68-8.06,12.8-16.01-.89-7.96-8.06-13.68-16.01-12.8Zm1.1,9.88c-2.36,.26-4.48-1.43-4.74-3.79-.26-2.36,1.43-4.48,3.79-4.74,2.36-.26,4.48,1.43,4.74,3.79,.26,2.36-1.43,4.48-3.79,4.74Z"></path><path class="cls-6" d="M597.95,597.27l.18,1.62,3.24,29.01s1.06,.25,1.93,.15c2.06-.23,3.23-2.2,2.94-4.84-.29-2.63-2.61-2.62-2.61-2.62,0,0,2.12-1.78,1.85-4.21l-.51-4.61-2.48-1.42s2.27-.45,1.87-4.04c-.27-2.43-2.38-5.11-2.71-8.08l-.25-1.86-3.44,.91Z"></path><path class="cls-7" d="M599.35,627.38c.63,.2,1.33,.39,2.02,.52l-3.39-30.35-1.87,.64,3.24,29.19Z"></path><polygon class="cls-6" points="596.11 598.19 594.21 598.58 597.43 627.39 599.35 627.38 596.11 598.19"></polygon><rect class="cls-11" x="592.34" y="588.46" width="11.09" height="1.6" rx=".25" ry=".25" transform="translate(-61.67 69.95) rotate(-6.37)"></rect></g><g><g><path class="cls-10" d="M577.41,602.15l-5.56,30.34s3.26,2.66,5.3,3.04,3.73-1.18,4.21-3.79c.48-2.61-1.74-3.27-1.74-3.27,0,0,2.54-1.09,2.99-3.5l.84-4.56-1.96-2.07s2.3,.22,2.95-3.33l2.81-15.31-9.82,2.45Z"></path><path class="cls-10" d="M586.74,576.65c-7.87-1.44-15.43,3.77-16.87,11.64-1.44,7.87,3.77,15.43,11.64,16.87,7.87,1.44,15.43-3.77,16.87-11.64,1.44-7.87-3.77-15.43-11.64-16.87Zm-1.82,9.92c-2.33-.43-3.88-2.67-3.45-5,.43-2.33,2.67-3.88,5-3.45,2.33,.43,3.88,2.67,3.45,5-.43,2.33-2.67,3.88-5,3.45Z"></path><g><path class="cls-10" d="M580.81,624.76c-.2,1.11-1,2.63-1,2.63,0,0,2.54-1.09,2.99-3.5l.84-4.56-1.96-2.07,.23,1.53-1.09,5.97Z"></path><path class="cls-10" d="M580,629.18l-.94,5.11c1.23-.49,2.16-1.8,2.5-3.63,.48-2.61-1.74-3.27-1.74-3.27,0,0,.42,.53,.19,1.79Z"></path><path class="cls-10" d="M584.63,613.92l1.59-8.67-1.64-1.18s-1.98,10.95-2.1,11.62c-.12,.66-.8,1.56-.8,1.56,0,0,2.3,.22,2.95-3.33Z"></path></g><path class="cls-6" d="M586.99,575.32c-7.87-1.44-15.43,3.77-16.87,11.64-1.44,7.87,3.77,15.43,11.64,16.87,7.87,1.44,15.43-3.77,16.87-11.64,1.44-7.87-3.77-15.43-11.64-16.87Zm-1.79,9.78c-2.33-.43-3.88-2.67-3.45-5,.43-2.33,2.67-3.88,5-3.45s3.88,2.67,3.45,5c-.43,2.33-2.67,3.88-5,3.45Z"></path><path class="cls-6" d="M581.11,603.43l-.29,1.6-5.26,28.71s.94,.54,1.81,.7c2.04,.37,3.73-1.18,4.21-3.79,.48-2.61-1.74-3.27-1.74-3.27,0,0,2.54-1.09,2.99-3.5l.84-4.56-1.96-2.07s2.3,.22,2.95-3.33c.44-2.4-.81-5.58-.27-8.52l.3-1.85-3.56-.12Z"></path><path class="cls-7" d="M573.76,632.66c.54,.37,1.16,.76,1.78,1.08l5.51-30.04-1.98,.07-5.31,28.88Z"></path><polygon class="cls-6" points="579.08 603.78 577.15 603.61 571.92 632.12 573.76 632.66 579.08 603.78"></polygon><rect class="cls-11" x="577.81" y="594.94" width="11.09" height="1.6" rx=".25" ry=".25" transform="translate(117 -95.44) rotate(10.39)"></rect></g><path class="cls-8" d="M573.7,575.71l-3.43,18.71c-.71,3.88,1.88,7.65,5.77,8.36l14.59,2.68c3.88,.71,7.65-1.88,8.36-5.77l3.43-18.71c1.28-6.99-3.39-13.75-10.37-15.03l-3.32-.61c-6.99-1.28-13.75,3.39-15.03,10.37Zm20.13-5.55c1.94,.35,3.23,2.23,2.87,4.17l-.08,.46c-.13,.73-.84,1.22-1.57,1.08l-12.38-2.27c-.73-.13-1.22-.84-1.08-1.57l.08-.46c.35-1.94,2.23-3.23,4.17-2.87l8,1.47Z"></path><path class="cls-13" d="M570.91,575.2l-3.43,18.71c-.71,3.88,1.88,7.65,5.77,8.36l14.59,2.68c3.88,.71,7.65-1.88,8.36-5.77l3.43-18.71c1.28-6.99-3.39-13.75-10.37-15.03l-3.32-.61c-6.99-1.28-13.75,3.39-15.03,10.37Zm20.13-5.55c1.94,.35,3.23,2.23,2.87,4.17l-.08,.46c-.13,.73-.84,1.22-1.57,1.08l-12.38-2.27c-.73-.13-1.22-.84-1.08-1.57l.08-.46c.35-1.94,2.23-3.23,4.17-2.87l8,1.47Z"></path><rect class="cls-16" x="570.85" y="586.11" width="11.91" height="9.34" rx="1.34" ry="1.34" transform="translate(-108.31 1051.58) rotate(-79.61)"></rect><rect class="cls-9" x="570.09" y="586.18" width="11.22" height="8.79" rx="1.26" ry="1.26" transform="translate(-109.01 1050.33) rotate(-79.61)"></rect><rect class="cls-16" x="581.85" y="588.12" width="11.91" height="9.34" rx="1.34" ry="1.34" transform="translate(-101.28 1064.05) rotate(-79.61)"></rect><rect class="cls-9" x="581.19" y="588.21" width="11.22" height="8.79" rx="1.26" ry="1.26" transform="translate(-101.92 1062.91) rotate(-79.61)"></rect></g><path class="cls-15" d="M609.06,567.93c4.14-4.3,4.93-9.48,4.93-9.48,.31-1.36,.47-2.78,.47-4.24,0-10.68-8.66-19.33-19.33-19.33s-19.33,8.66-19.33,19.33c0,4.16,1.31,8.01,3.55,11.17,0,0,5.59,7.27,14.65,8.06"></path><path class="cls-5" d="M586.42,520.04s1.66,16.49,2.63,18.59c.97,2.1,9.91,1.41,10.26-.9,.35-2.31-1.2-17.54-2.85-18.88-1.65-1.35-9.44-.75-10.04,1.2Z"></path></g></g><g><path class="cls-14" d="M619.46,151.81s-59.64-20.33-62.9-28.84c-3.27-8.5-6.98-84.87,17.95-98.58,24.93-13.7,110.45-29.72,136.98-22.68,26.52,7.04,37.81,14.96,44.66,21.37,6.85,6.41-9.36,59.06-15.01,61.4-5.65,2.34-117.92,26.56-119.38,26.78-1.47,.22-2.28,40.55-2.28,40.55Z"></path><path class="cls-12" d="M652.3,161.72s-16.06-12.41-32.84-9.91c0,0-23.48-84.99,1.81-107.41,25.3-22.42,115.5-27.14,131.46-22.86,15.96,4.28,33.76,59.65,35.62,70.71,1.87,11.06-90.53,30.11-100.44,39.6-9.91,9.49-35.61,29.87-35.61,29.87Z"></path><path class="cls-14" d="M818.82,98.24s-20.25-13.69-34.71-21.24c-12.97-6.77-29.5-12.68-77.36-5.38-45.46,6.94-65.85,22.9-85.85,61.91-3.05,5.95-2.47,11.34-1.44,18.28,0,0,12.4,7.56,32.84,9.91l38.28-34.91,128.24-28.57Z"></path><path class="cls-12" d="M652.3,161.72s74.36-46.95,166.02-48.62l6.6,.18c-.89-6.19-2.11-13.67-8.54-16.54-3.85-1.72-91.75-2.31-154.61,36.06-7.51,4.58-15.43,8.26-15.4,18.58,.03,7.14,5.93,10.34,5.93,10.34Z"></path><path class="cls-19" d="M711.48,1.72c-26.52-7.04-112.05,8.98-136.98,22.68-24.93,13.7-21.21,90.07-17.95,98.58,1.26,3.27,10.84,8.28,22.17,13.22,.35-.25,.56-.4,.56-.4,0,0-12.38-58.49-7.01-80.6,5.36-22.11,22.15-30.61,54.12-37.03,20.62-4.15,59.44-9.48,95.27-13.47-3.13-1.01-6.49-2-10.17-2.98Z"></path><path class="cls-1" d="M620.9,133.53s3.73-53.17,60.37-68.6c56.64-15.43,91.83,7.29,91.83,7.29,0,0-54.1,.07-81.23,12.44-27.13,12.37-47.14,23.34-70.97,48.87Z"></path></g><g><g><path class="cls-3" d="M445.83,443.27s.01-.02,.02-.03c10.75-22.55,36.47-34.76,61.32-27.75,27.77,7.84,43.93,36.7,36.09,64.47-3.7,13.11-12.09,23.63-22.84,30.26h0s-23.59,19.03-35.13,31.55c-11.62,12.61-12.83,21.81,33.24,45.34,46.07,23.53-15.61,33.71-26.35,29.55-10.74-4.16-91.28-33.54-93.51-68.2-2.23-34.65,39.19-93.15,47.15-105.21Z"></path><path class="cls-18" d="M518.54,587.12c8.37,4.28,13.17,8.11,15.38,11.5-11.36-4.3-37.51-14.78-60.93-28.32-30.97-17.9-22.82-45.47-1.08-63.96,17.93-15.25,49.91-59.65,60.57-74.76,11.1,12.84,15.74,30.83,10.79,48.39-3.7,13.11-12.09,23.63-22.84,30.26h0s-23.59,19.03-35.13,31.55c-11.62,12.61-12.83,21.81,33.24,45.34Z"></path></g><circle class="cls-4" cx="517.26" cy="608.96" r="35.52"></circle></g></g></g></svg>