<svg width="23" height="24" viewBox="0 0 23 24" fill="none" xmlns="http://www.w3.org/2000/svg">
<path d="M21.7272 0C22.0766 0 22.3761 0.130208 22.6257 0.390625C22.8752 0.651042 23 0.963542 23 1.32812V22.6719C23 23.0365 22.8752 23.349 22.6257 23.6094C22.3761 23.8698 22.0766 24 21.7272 24H15.8724V14.7031H18.8522L19.3014 11.0781H15.8724V8.76562C15.8724 8.18229 15.9897 7.74479 16.2243 7.45312C16.4589 7.16146 16.9156 7.01562 17.5944 7.01562L19.4212 7V3.76562C18.7923 3.67188 17.9039 3.625 16.7559 3.625C15.3982 3.625 14.3126 4.04167 13.499 4.875C12.6854 5.70833 12.2786 6.88542 12.2786 8.40625V11.0781H9.28385V14.7031H12.2786V24H1.27279C0.923394 24 0.623915 23.8698 0.374349 23.6094C0.124783 23.349 0 23.0365 0 22.6719V1.32812C0 0.963542 0.124783 0.651042 0.374349 0.390625C0.623915 0.130208 0.923394 0 1.27279 0H21.7272Z" fill="black"/>
</svg>
