<svg xmlns="http://www.w3.org/2000/svg" xmlns:xlink="http://www.w3.org/1999/xlink" id="Layer_2" viewBox="0 0 1469.7 785.13"><defs><style>.cls-1,.cls-2,.cls-3,.cls-4{fill:none;}.cls-5{letter-spacing:-.09em;}.cls-6{clip-path:url(#clippath);}.cls-7{opacity:.1;}.cls-8{fill:#67b26d;}.cls-9{fill:#e95815;}.cls-10,.cls-11,.cls-12{fill:#fff;}.cls-13{fill:#fcd932;}.cls-14{fill:#999;}.cls-15{fill:#9d9d9c;}.cls-16{fill:#8c6239;}.cls-17{fill:#b3b3b3;}.cls-18{fill:#664020;}.cls-19{fill:#a9e0d6;}.cls-20{fill:#bbb;}.cls-21,.cls-22{fill:#ccc;}.cls-23{fill:#dfedea;}.cls-24{fill:#e0e0e0;}.cls-25{fill:#04b4c2;}.cls-26{fill:#1d1d1b;}.cls-27{fill:#706f6f;}.cls-28,.cls-29{fill:#959595;}.cls-30{fill:#27c93a;}.cls-31{fill:#37d7ff;}.cls-32{fill:#3c3c3b;}.cls-33{fill:#4b7f4e;}.cls-34{fill:#5f8493;}.cls-35{fill:#44aab6;}.cls-36{fill:#754c24;}.cls-37{fill:#4e2084;}.cls-38{letter-spacing:-.02em;}.cls-39{letter-spacing:-.02em;}.cls-40{letter-spacing:-.05em;}.cls-41{letter-spacing:-.05em;}.cls-42{fill:#ff7bac;opacity:.19;}.cls-2{stroke:#9d9d9c;stroke-width:.26px;}.cls-2,.cls-43,.cls-44,.cls-22,.cls-45,.cls-4{stroke-miterlimit:10;}.cls-46{letter-spacing:.02em;}.cls-47{letter-spacing:.02em;}.cls-43{fill:#575756;stroke:#1d1d1b;stroke-width:.1px;}.cls-48{letter-spacing:-.11em;}.cls-3{stroke-linecap:round;stroke-linejoin:round;}.cls-3,.cls-4{stroke:#562c2c;stroke-width:11.18px;}.cls-49{opacity:.2;}.cls-50{fill:#4d4d4d;}.cls-50,.cls-51{font-size:4.03px;}.cls-50,.cls-51,.cls-52{font-family:Avenir-Heavy, Avenir;}.cls-51{fill:#333;}.cls-53{letter-spacing:0em;}.cls-54,.cls-12{opacity:.25;}.cls-55,.cls-11{opacity:.5;}.cls-56{letter-spacing:0em;}.cls-44{fill:#e6e6e6;}.cls-44,.cls-22,.cls-45{stroke:#b3b3b3;stroke-width:.72px;}.cls-45{fill:#f2f2f2;}.cls-57{letter-spacing:0em;}.cls-52{font-size:25.64px;}.cls-29{opacity:.47;}</style><clipPath id="clippath"><ellipse class="cls-1" cx="437.39" cy="183.07" rx="27.64" ry="41.28" transform="translate(18.73 405.67) rotate(-50.71)"></ellipse></clipPath></defs><g id="Layer_1-2"><g><g><rect class="cls-18" x="0" y="403.27" width="980.72" height="54.78" rx="21.59" ry="21.59"></rect><rect class="cls-16" x="133.43" y="403.27" width="847.29" height="54.78" rx="22.26" ry="22.26"></rect><path class="cls-16" d="M787.36,458.05h19.89c2.07,0,3.75,1.68,3.75,3.75v292.66c0,2.07-1.68,3.75-3.75,3.75h-19.89c-2.07,0-3.75-1.68-3.75-3.75V461.79c0-2.07,1.68-3.75,3.75-3.75Z"></path><path class="cls-16" d="M921.97,458.05h19.89c2.07,0,3.75,1.68,3.75,3.75v292.66c0,2.07-1.68,3.75-3.75,3.75h-19.89c-2.07,0-3.75-1.68-3.75-3.75V461.79c0-2.07,1.68-3.75,3.75-3.75Z"></path><path class="cls-16" d="M39.39,458.05h19.89c2.07,0,3.75,1.68,3.75,3.75v292.66c0,2.07-1.68,3.75-3.75,3.75h-19.89c-2.07,0-3.75-1.68-3.75-3.75V461.79c0-2.07,1.68-3.75,3.75-3.75Z"></path><path class="cls-16" d="M174,458.05h19.89c2.07,0,3.75,1.68,3.75,3.75v292.66c0,2.07-1.68,3.75-3.75,3.75h-19.89c-2.07,0-3.75-1.68-3.75-3.75V461.79c0-2.07,1.68-3.75,3.75-3.75Z"></path><path class="cls-55" d="M787.36,458.05h19.89c2.07,0,3.75,1.68,3.75,3.75v292.66c0,2.07-1.68,3.75-3.75,3.75h-19.89c-2.07,0-3.75-1.68-3.75-3.75V461.79c0-2.07,1.68-3.75,3.75-3.75Z"></path><path class="cls-54" d="M921.97,458.05h19.89c2.07,0,3.75,1.68,3.75,3.75v292.66c0,2.07-1.68,3.75-3.75,3.75h-19.89c-2.07,0-3.75-1.68-3.75-3.75V461.79c0-2.07,1.68-3.75,3.75-3.75Z"></path><path class="cls-55" d="M39.39,458.05h19.89c2.07,0,3.75,1.68,3.75,3.75v292.66c0,2.07-1.68,3.75-3.75,3.75h-19.89c-2.07,0-3.75-1.68-3.75-3.75V461.79c0-2.07,1.68-3.75,3.75-3.75Z"></path><path class="cls-54" d="M174,458.05h19.89c2.07,0,3.75,1.68,3.75,3.75v292.66c0,2.07-1.68,3.75-3.75,3.75h-19.89c-2.07,0-3.75-1.68-3.75-3.75V461.79c0-2.07,1.68-3.75,3.75-3.75Z"></path><rect class="cls-54" x="13.51" y="738.91" width="951" height="29.46" rx="14.73" ry="14.73"></rect><path class="cls-36" d="M783.62,754.45c0,2.07,1.68,3.75,3.75,3.75h19.89c2.07,0,3.75-1.68,3.75-3.75v-248.82h-27.39v248.82Z"></path><path class="cls-16" d="M918.22,754.45c0,2.07,1.68,3.75,3.75,3.75h19.89c2.07,0,3.75-1.68,3.75-3.75v-248.82h-27.39v248.82Z"></path><path class="cls-36" d="M35.64,754.45c0,2.07,1.68,3.75,3.75,3.75h19.89c2.07,0,3.75-1.68,3.75-3.75v-248.82h-27.39v248.82Z"></path><path class="cls-16" d="M170.25,754.45c0,2.07,1.68,3.75,3.75,3.75h19.89c2.07,0,3.75-1.68,3.75-3.75v-248.82h-27.39v248.82Z"></path><path class="cls-12" d="M978.49,416.55c-3.71-7.84-11.67-13.28-20.92-13.28H23.15c-9.25,0-17.21,5.44-20.92,13.28H978.49Z"></path><path class="cls-54" d="M3.72,447.46c4.13,6.37,11.28,10.59,19.43,10.59H957.57c8.15,0,15.31-4.22,19.43-10.59H3.72Z"></path></g><g><g><path class="cls-8" d="M835.23,301.73s.95-136.25-119.1-204.57l119.1,204.57Z"></path><path class="cls-33" d="M835.23,301.73l-119.1-204.57s35.65,174.52,119.1,204.57Z"></path></g><g><path class="cls-8" d="M833.93,325.73s119.46-127.09,57.61-301.74l-57.61,301.74Z"></path><path class="cls-33" d="M833.93,325.73L891.54,23.99s-115.76,196.72-57.61,301.74Z"></path></g><g><path class="cls-8" d="M832.86,294.53s74.27,30.25,152.92-113.77l-152.92,113.77Z"></path><path class="cls-33" d="M832.86,294.53l152.92-113.77s-107.79,9.95-152.92,113.77Z"></path></g><path class="cls-34" d="M795.54,279.78h102.93c2.09,0,3.78,1.7,3.78,3.78v108.29c0,9.74-7.91,17.66-17.66,17.66h-75.18c-9.74,0-17.66-7.91-17.66-17.66v-108.29c0-2.09,1.7-3.78,3.78-3.78Z"></path><path class="cls-54" d="M901.75,370.71c-6.32,11.68-17.45,22.87-36.87,22.87h-35.75c-19.43,0-30.55-11.19-36.87-22.87,3.27,21.87,22.25,38.79,45,38.79h19.5c22.75,0,41.73-16.92,45-38.79Z"></path><path class="cls-54" d="M892.5,279.78h-90.99c-5.36,0-9.75,4.39-9.75,9.75v45.07h110.49v-45.07c0-5.36-4.39-9.75-9.75-9.75Z"></path><rect class="cls-34" x="771.65" y="277.81" width="150.7" height="40.73" rx="3.6" ry="3.6"></rect><path class="cls-12" d="M913.09,277.81h-132.17c-5.1,0-9.27,4.17-9.27,9.27v2.77h150.7v-2.77c0-5.1-4.17-9.27-9.27-9.27Z"></path></g><g><path class="cls-14" d="M327.62,123.02l102.79,252.88c2.21,5.43,8.4,8.05,13.84,5.84l9.91-4.55c1.99-.81,3.58-2.15,4.72-3.79l6.61,15.36h311.89l-4.18-10.1,3.62-1.47c5.43-2.21,8.05-8.4,5.84-13.84l-102.78-252.88c-1.47-3.62-4.71-5.94-8.31-6.47-1.21-.36-2.47-.61-3.8-.61H349.27c-1.6,0-3.11,.33-4.53,.84-.46,.12-.92,.22-1.38,.4"></path><path class="cls-23" d="M678.46,103.39H349.27l109.6,270h328.43l-108.84-270Z"></path><rect class="cls-14" x="447.85" y="373.39" width="450.89" height="35.73" rx="15.1" ry="15.1"></rect><g><polygon class="cls-10" points="770.63 353.86 458.68 353.86 368.25 130.05 680.21 130.05 770.63 353.86"></polygon><polygon class="cls-37" points="684.04 139.54 372.09 139.54 368.25 130.05 680.21 130.05 684.04 139.54"></polygon><path class="cls-37" d="M705.44,227.9H423.41c-1.35,0-2.88-1.09-3.42-2.44h0c-.54-1.35,.11-2.44,1.45-2.44h282.03c1.35,0,2.88,1.09,3.42,2.44h0c.54,1.35-.11,2.44-1.45,2.44Z"></path><g class="cls-6"><polygon class="cls-19" points="522.12 246.01 406.38 246.01 359.62 130.27 475.36 130.27 522.12 246.01"></polygon><g><path class="cls-9" d="M457.06,203.31c2.05,2.24,4.05,4.52,5.94,6.85,.95,1.16,1.87,2.34,2.74,3.53,.88,1.19,1.72,2.39,2.49,3.61l2.87-.09c-.34-1.35-.78-2.72-1.26-4.08-.48-1.36-1.01-2.73-1.58-4.09-1.14-2.73-2.42-5.44-3.79-8.15l-1.21-2.22c-1.67-3.07-5.6-4.93-8.04-3.82h0c-2.32,1.05-2.18,4.31,.3,6.87l1.54,1.59Z"></path><path class="cls-54" d="M455.6,201.81c-2.53-2.61-2.68-5.93-.31-7h0s8.12,9.17,14.53,22.44l-1.6,.05c-.77-1.22-1.61-2.42-2.49-3.61-.87-1.19-1.79-2.37-2.74-3.53-1.89-2.33-3.89-4.61-5.94-6.85l-1.45-1.5Z"></path><ellipse class="cls-9" cx="469.03" cy="217.46" rx="2.73" ry="4.08" transform="translate(3.72 442.77) rotate(-50.71)"></ellipse><path class="cls-9" d="M457.24,207.41l7.55,15.53,2.38,1.3c.64,.35,.7,1.13,.1,1.12l-4.82-.03c-.92,0-1.97-.63-2.55-1.53l-11.64-17.96,8.98,1.57Z"></path><path class="cls-9" d="M435.77,207.27l7.87,15.53-1.36,1.27c-.36,.34,.19,1.12,.8,1.13l4.56,.03c1.04,0,1.59-.77,1.28-1.8l-5.36-17.62-7.78,1.46Z"></path><path class="cls-54" d="M454.15,214.92l-5.89-9.08,8.98,1.57,3.37,6.93c-1.89,.2-4.49,.46-6.46,.59Z"></path><polygon class="cls-54" points="443.54 205.81 446.32 214.92 439.78 215.21 435.77 207.27 443.54 205.81"></polygon><path class="cls-9" d="M427.23,155.45l52.46,50.25c1.94,1.86,1.64,4.31-.53,4.38l-60.01,2.06c-2.18,.07-4.58-2.28-4.3-4.22l7.55-52.31c.27-1.9,2.93-1.99,4.83-.17Z"></path><path class="cls-55" d="M429.03,175.41c-1.86,1.36-1.17,5.07,.01,3.24s2.1-2.14,3.59-2.45-1.12-2.6-3.61-.79Z"></path><path class="cls-55" d="M439.25,174.92c2.34,.63,4.96,3.96,2.66,2.74-2.29-1.22-3.15-1.22-4.39-1.07-1.24,.15-1.41-2.51,1.72-1.67Z"></path><path class="cls-55" d="M437.75,189.19l5.08,.33c.19,.01,.38,.25,.32,.41-.33,.92-1.54,2.92-5.44-.32-.2-.17-.18-.44,.04-.43Z"></path><path class="cls-55" d="M434.63,180.46c-.84,.05-1.19,.79-.79,1.64l1.72,3.72c.4,.86,1.4,1.51,2.23,1.46,.84-.05,1.19-.79,.79-1.64l-1.72-3.72c-.4-.86-1.4-1.51-2.23-1.46Z"></path><path class="cls-55" d="M439.31,180.46c-.84,.05-1.19,.79-.79,1.64l1.72,3.72c.4,.86,1.4,1.51,2.23,1.46,.84-.05,1.19-.79,.79-1.64l-1.72-3.72c-.4-.86-1.4-1.51-2.23-1.46Z"></path><path class="cls-12" d="M422.75,212.02l5.07-56h0l-.59-.57c-1.9-1.82-4.56-1.73-4.83,.17l-7.55,52.31c-.28,1.94,2.12,4.29,4.3,4.22l3.6-.12Z"></path><path class="cls-54" d="M472.37,210.32l6.79-.23c2.18-.07,2.47-2.52,.53-4.38l-46.21-44.26,38.89,48.88Z"></path><path class="cls-9" d="M434.96,203.12c0,2.33,.08,4.7,.32,7.1,.11,1.2,.27,2.41,.47,3.63,.2,1.22,.45,2.45,.78,3.69l-2.84,.17c-.86-1.33-1.64-2.68-2.38-4.03-.74-1.35-1.43-2.71-2.08-4.07-1.31-2.72-2.46-5.44-3.53-8.16l-.79-2.24c-1.09-3.09,1.04-5.23,4.36-4.39h0c3.16,.81,5.88,3.94,5.75,6.62l-.08,1.67Z"></path><path class="cls-54" d="M429.24,194.82c.13,2.08,.96,10.97,5.82,22.82l-1.36,.08c-.86-1.33-1.64-2.68-2.38-4.03-.74-1.35-1.43-2.71-2.08-4.07-1.31-2.72-2.46-5.44-3.53-8.16l-.79-2.24c-1.08-3.08,1.02-5.21,4.31-4.4Z"></path><ellipse class="cls-9" cx="435.68" cy="219.65" rx="2.73" ry="4.08" transform="translate(-10.21 417.76) rotate(-50.71)"></ellipse><g><path class="cls-49" d="M443.87,212.5s-.02-.02-.03-.04c-.01-.02-.03-.04-.04-.06-.1-.14-.21-.18-.28-.19,0-.08-.01-.2-.1-.33l-.11-.14-.05-.06-.12-.17-.02-.02h0l-.08-.12-.17-.05c.02-.06,.01-.16-.12-.34l-.1-.13-.15-.21-.04-.05-.29-.39-.03-.04-.05-.06h0c.31-.35,.27-.95-.16-1.52-.02-.02-.03-.04-.05-.06-.01-.02-.03-.04-.04-.06-.29-.39-.69-.67-1.1-.82,.21-.41,.1-.89,.1-.9-.02-.14-.07-.28-.12-.42-.37-.91-1.51-1.76-2.44-1.94-.23-.49-.99-1.59-1.15-1.69-.21-.13-.44,.23-.42,.41,0,0,.46,.91,.75,1.42-.63,.26-.87,.96-.54,1.79,.16,.39,.42,.76,.77,1.08-.29,.16-.44,.48-.35,.89l.39,1.76c.08,.37,.47,.72,.86,.79l.26,.04c.05,.03,.11,.06,.16,.08h0l.59,2.68h0v.03s.42,.25,.62,.29c.21,.04,.31-.11,.25-.36,0-.01,0-.03-.01-.04,0-.02,0-.04,0-.06-.03-.14-.12-.22-.19-.26,.05-.05,.1-.14,.07-.27l-.02-.1h0l-.04-.2-.02-.07-.04-.16-.15-.11c.05-.03,.11-.1,.07-.29l-.11-.5-.05-.21h0l-.03-.16v-.03h0v-.02s.09-.02,.13-.03l.29,.05c.15,.03,.28,0,.38-.05l1.09,2.11h0l.02,.04s.43,.15,.61,.13c.19-.02,.22-.21,.09-.45,0-.01-.02-.03-.02-.04,0-.02-.02-.04-.03-.07-.06-.12-.15-.19-.22-.22-.01,0-.02,0-.03-.01,.02-.07,.04-.18-.03-.31l-.05-.1h0l-.12-.23v-.03l-.1-.18-.17-.08s.05-.14-.04-.33l-.05-.1h0l-.1-.2-.14-.27-.04-.07-.15-.28h.02s.09,0,.13,0h0l1.93,2.58h0l.02,.03s.42,.07,.58,0c.16-.06,.14-.27-.03-.5Zm-5.67-4.54c-.01-.07,0-.12,.02-.17,.15,.09,.34,.18,.53,.26-.03,.05-.06,.1-.08,.15l-.3-.05c-.07-.01-.15-.08-.16-.15v-.04Zm.83-.17c-.07,.04-.14,.08-.19,.14-.19-.07-.36-.15-.51-.23,.04-.01,.09-.01,.14,0l.53,.09s.02,0,.03,0Zm-1.25-.46c-.33-.29-.58-.64-.72-1-.3-.74-.09-1.37,.47-1.62,.04,.07,.08,.13,.1,.15,.17,.2,.9,.16,.85-.06,0-.03-.11-.17-.14-.23,.84,.18,1.86,.93,2.19,1.75,.05,.13,.09,.26,.11,.39,0,0,.11,.47-.1,.85l.09,.06c-.31-.09-.62-.1-.88,0-.04,.02-.08,.04-.12,.06-.01,0-.03,0-.04,0-.2-.12-.42-.21-.63-.25l-.28-.05h0l-.33-.06c-.2-.03-.37-.02-.52,.03l-.03-.02Z"></path><g><g><path class="cls-28" d="M440.81,209.95l2.05,2.74s.42,.07,.58,0,.14-.27-.03-.5-.37-.19-.37-.19c0,0,.07-.21-.09-.42l-.31-.41-.29-.08s.16-.09-.08-.41l-1.03-1.38-.43,.65Z"></path><path class="cls-28" d="M439.38,207.44c-.61,.24-.68,1.02-.15,1.73s1.46,1.09,2.07,.84,.68-1.02,.15-1.73c-.53-.71-1.46-1.09-2.07-.84Zm.67,.9c-.18,.07-.46-.04-.61-.25s-.14-.44,.04-.51,.46,.04,.61,.25,.14,.44-.04,.51Z"></path><g><path class="cls-28" d="M442.81,211.65c.07,.1,.15,.26,.15,.26,0,0,.07-.21-.09-.42l-.31-.41-.29-.08,.14,.11,.4,.54Z"></path><path class="cls-28" d="M443.11,212.05l.35,.46c.04-.1,0-.25-.13-.41-.18-.24-.37-.19-.37-.19,0,0,.07,.02,.15,.14Z"></path><path class="cls-28" d="M442.2,210.59l-.59-.78-.2-.02s.74,.99,.79,1.05,.07,.17,.07,.17c0,0,.16-.09-.08-.41Z"></path></g><path class="cls-20" d="M439.29,207.32c-.61,.24-.68,1.02-.15,1.73s1.46,1.09,2.07,.84c.61-.24,.68-1.02,.15-1.73s-1.46-1.09-2.07-.84Zm.66,.88c-.18,.07-.46-.04-.61-.25s-.14-.44,.04-.51,.46,.04,.61,.25,.14,.44-.04,.51Z"></path><path class="cls-20" d="M441.14,209.89l.11,.14,1.94,2.59s.1,0,.17-.03c.16-.06,.14-.27-.03-.5s-.37-.19-.37-.19c0,0,.07-.21-.09-.42l-.31-.41-.29-.08s.16-.09-.08-.41c-.16-.22-.49-.42-.69-.69l-.13-.17-.23,.15Z"></path><path class="cls-24" d="M442.99,212.62c.06,0,.13,0,.2,0l-2.03-2.71-.12,.1,1.95,2.61Z"></path><polygon class="cls-20" points="441.04 210.01 440.91 210.09 442.83 212.66 442.99 212.62 441.04 210.01"></polygon><path class="cls-29" d="M441.12,209.07l-.79,.32s-.04,0-.05-.02l-.06-.07s-.01-.04,0-.05l.79-.32s.04,0,.05,.02l.06,.07s.01,.04,0,.05Z"></path></g><g><path class="cls-28" d="M439.86,210.05l1.49,2.88s.43,.15,.61,.13,.22-.21,.09-.45-.35-.25-.35-.25c0,0,.13-.17,.01-.4l-.22-.43-.29-.13s.2-.04,.02-.38l-.75-1.45-.62,.49Z"></path><path class="cls-28" d="M438.98,207.51c-.71,.08-.98,.76-.59,1.5s1.28,1.29,1.99,1.2c.71-.08,.98-.76,.59-1.5s-1.28-1.29-1.99-1.2Zm.49,.94c-.21,.02-.48-.13-.59-.36s-.04-.42,.18-.45,.48,.13,.59,.36,.04,.42-.18,.45Z"></path><g><path class="cls-28" d="M441.56,212c.05,.1,.09,.26,.09,.26,0,0,.13-.17,.01-.4l-.22-.43-.29-.13,.12,.13,.29,.57Z"></path><path class="cls-28" d="M441.78,212.42l.25,.49c.07-.08,.06-.22-.03-.39-.13-.25-.35-.25-.35-.25,0,0,.07,.04,.13,.16Z"></path><path class="cls-28" d="M441.18,210.92l-.42-.82-.2-.06s.54,1.04,.57,1.1,.04,.16,.04,.16c0,0,.2-.04,.02-.38Z"></path></g><path class="cls-20" d="M438.92,207.38c-.71,.08-.98,.76-.59,1.5,.39,.75,1.28,1.29,1.99,1.2,.71-.08,.98-.76,.59-1.5s-1.28-1.29-1.99-1.2Zm.48,.93c-.21,.02-.48-.13-.59-.36s-.04-.42,.18-.45,.48,.13,.59,.36,.04,.42-.18,.45Z"></path><path class="cls-20" d="M440.23,210.07l.08,.15,1.41,2.73s.11,.02,.19,.01c.19-.02,.22-.21,.09-.45s-.35-.25-.35-.25c0,0,.13-.17,.01-.4l-.22-.43-.29-.13s.2-.04,.02-.38c-.12-.23-.42-.48-.56-.76l-.09-.17-.29,.09Z"></path><path class="cls-24" d="M441.51,212.9c.07,.02,.14,.04,.21,.05l-1.47-2.85-.15,.06,1.41,2.74Z"></path><polygon class="cls-20" points="440.1 210.16 439.93 210.19 441.33 212.9 441.51 212.9 440.1 210.16"></polygon><path class="cls-29" d="M440.42,209.34l-.92,.11s-.04-.01-.05-.03l-.04-.08s0-.04,.02-.04l.92-.11s.04,.01,.05,.03l.04,.08s0,.04-.02,.04Z"></path></g><g><g><path class="cls-28" d="M438.49,210.53l.63,2.85s.41,.25,.61,.29,.31-.11,.25-.36-.29-.31-.29-.31c0,0,.2-.1,.15-.33l-.09-.43-.26-.19s.22,.02,.15-.31l-.32-1.44-.83,.23Z"></path><path class="cls-28" d="M438.4,208.13c-.79-.14-1.31,.35-1.14,1.09s.94,1.45,1.73,1.59,1.31-.35,1.14-1.09-.94-1.45-1.73-1.59Zm.21,.93c-.24-.04-.47-.25-.51-.47s.1-.36,.34-.32,.47,.25,.51,.47-.1,.36-.34,.32Z"></path><g><path class="cls-28" d="M439.67,212.65c.02,.1,0,.25,0,.25,0,0,.2-.1,.15-.33l-.09-.43-.26-.19,.08,.14,.12,.56Z"></path><path class="cls-28" d="M439.76,213.07l.11,.48c.1-.05,.13-.17,.1-.34-.05-.25-.29-.31-.29-.31,0,0,.06,.05,.09,.17Z"></path><path class="cls-28" d="M439.61,211.63l-.18-.81-.2-.11s.23,1.03,.24,1.09-.02,.15-.02,.15c0,0,.22,.02,.15-.31Z"></path></g><path class="cls-20" d="M438.37,208.01c-.79-.14-1.31,.35-1.14,1.09s.94,1.45,1.73,1.59,1.31-.35,1.14-1.09-.94-1.45-1.73-1.59Zm.2,.92c-.24-.04-.47-.25-.51-.47s.1-.36,.34-.32,.47,.25,.51,.47-.1,.36-.34,.32Z"></path><path class="cls-20" d="M438.88,210.65l.03,.15,.6,2.7s.11,.05,.2,.07c.21,.04,.31-.11,.25-.36s-.29-.31-.29-.31c0,0,.2-.1,.15-.33l-.09-.43-.26-.19s.22,.02,.15-.31c-.05-.23-.29-.52-.35-.8l-.04-.17h-.34Z"></path><path class="cls-24" d="M439.3,213.4c.07,.03,.14,.07,.21,.1l-.62-2.82h-.18l.6,2.72Z"></path><polygon class="cls-20" points="438.71 210.68 438.52 210.66 439.11 213.34 439.3 213.4 438.71 210.68"></polygon><path class="cls-29" d="M439.33,210.09l-1.03-.18s-.04-.02-.05-.04l-.02-.08s0-.03,.03-.03l1.03,.18s.04,.02,.05,.04l.02,.08s0,.03-.03,.03Z"></path></g><path class="cls-26" d="M437.14,208.04l.39,1.76c.08,.37,.47,.72,.86,.79l1.47,.25c.39,.07,.65-.18,.57-.54l-.39-1.76c-.14-.66-.84-1.29-1.55-1.41l-.33-.06c-.71-.12-1.16,.32-1.02,.97Zm1.68-.52c.2,.03,.39,.21,.43,.39v.04c.02,.07-.02,.11-.1,.1l-1.25-.21c-.07-.01-.15-.08-.16-.15v-.04c-.05-.18,.08-.3,.27-.27l.81,.14Z"></path><path class="cls-32" d="M436.85,208l.39,1.76c.08,.37,.47,.72,.86,.79l1.47,.25c.39,.07,.65-.18,.57-.54l-.39-1.76c-.14-.66-.84-1.29-1.55-1.41l-.33-.06c-.71-.12-1.16,.32-1.02,.97Zm1.68-.52c.2,.03,.39,.21,.43,.39v.04c.02,.07-.02,.11-.1,.1l-1.25-.21c-.07-.01-.15-.08-.16-.15v-.04c-.05-.18,.08-.3,.27-.27l.81,.14Z"></path><path class="cls-43" d="M438.38,209.18l.16,.72c.02,.1-.05,.17-.16,.16l-.52-.09c-.11-.02-.22-.12-.25-.22l-.16-.72c-.02-.1,.05-.17,.16-.16l.52,.09c.11,.02,.22,.12,.25,.22Z"></path><path class="cls-27" d="M438.25,209.18l.15,.68c.02,.1-.05,.16-.15,.15l-.49-.08c-.11-.02-.21-.11-.23-.21l-.15-.68c-.02-.1,.05-.16,.15-.15l.49,.08c.11,.02,.21,.11,.23,.21Z"></path><path class="cls-43" d="M439.49,209.37l.16,.72c.02,.1-.05,.17-.16,.16l-.52-.09c-.11-.02-.22-.12-.25-.22l-.16-.72c-.02-.1,.05-.17,.16-.16l.52,.09c.11,.02,.22,.12,.25,.22Z"></path><path class="cls-27" d="M439.37,209.37l.15,.68c.02,.1-.05,.16-.15,.15l-.49-.08c-.11-.02-.21-.11-.23-.21l-.15-.68c-.02-.1,.05-.16,.15-.15l.49,.08c.11,.02,.21,.11,.23,.21Z"></path></g><path class="cls-2" d="M440.16,207.31c.23-.4,.1-.89,.1-.89-.02-.13-.06-.26-.12-.4-.41-1-1.55-1.82-2.55-1.82s-1.49,.81-1.08,1.82c.16,.39,.43,.75,.76,1.05,0,0,.8,.68,1.68,.76"></path><path class="cls-15" d="M436.22,202.81s.78,1.55,.95,1.75,.98,.13,.93-.08-.78-1.65-.98-1.77-.92-.07-.9,.11Z"></path></g></g><g><path class="cls-35" d="M424.66,167.74s-6.39-2.31-6.96-3.13-3.31-8-1.33-9.12,9.74-2.03,12.51-1.19,4.11,1.66,4.97,2.31,.93,5.47,.46,5.65-10.55,1.68-10.69,1.69,1.04,3.78,1.04,3.78Z"></path><path class="cls-31" d="M428.14,168.9s-1.93-1.27-3.48-1.15c0,0-4.9-8.13-3.16-10.05s10.3-1.75,11.98-1.24c1.67,.51,5.11,5.82,5.63,6.87s-7.8,2.2-8.46,3.02c-.66,.82-2.51,2.56-2.51,2.56Z"></path><path class="cls-35" d="M442.24,164.09s-2.38-1.42-4.01-2.23c-1.46-.72-3.24-1.39-7.63-1.03-4.17,.34-5.64,1.69-6.36,5.21-.11,.54,.11,1.05,.43,1.7,0,0,1.43,.79,3.48,1.15l2.61-3.01,11.49-1.8Z"></path><path class="cls-31" d="M428.14,168.9s5.72-3.89,14.51-3.42l.64,.06c-.28-.59-.63-1.3-1.34-1.61-.43-.19-8.92-.85-13.8,2.32-.58,.38-1.23,.67-.91,1.64,.22,.67,.89,1.01,.89,1.01Z"></path><path class="cls-12" d="M428.89,154.31c-2.78-.84-10.53,.07-12.51,1.19-1.98,1.11,.75,8.3,1.33,9.12,.22,.31,1.3,.85,2.55,1.39,.03-.02,.04-.03,.04-.03,0,0-3.01-5.57-3.18-7.6-.17-2.04,1.19-2.72,4.07-3.1,1.86-.25,5.44-.48,8.77-.61-.33-.12-.69-.23-1.07-.35Z"></path><path class="cls-7" d="M424.24,166.04s-1.29-4.96,3.7-6.02c4.99-1.06,9.09,1.31,9.09,1.31,0,0-5.22-.36-7.45,.61-2.23,.97-3.82,1.86-5.33,4.09Z"></path></g></g></g><polygon class="cls-45" points="460.86 247.73 428.98 247.73 423.85 235.04 455.73 235.04 460.86 247.73"></polygon><polygon class="cls-45" points="492.74 247.73 460.86 247.73 455.73 235.04 487.61 235.04 492.74 247.73"></polygon><polygon class="cls-45" points="524.62 247.73 492.74 247.73 487.61 235.04 519.49 235.04 524.62 247.73"></polygon><polygon class="cls-45" points="588.37 247.73 524.62 247.73 519.49 235.04 583.25 235.04 588.37 247.73"></polygon><polygon class="cls-45" points="620.25 247.73 588.37 247.73 583.25 235.04 615.13 235.04 620.25 247.73"></polygon><polygon class="cls-45" points="652.13 247.73 620.25 247.73 615.13 235.04 647 235.04 652.13 247.73"></polygon><polygon class="cls-45" points="684.01 247.73 652.13 247.73 647 235.04 678.88 235.04 684.01 247.73"></polygon><polygon class="cls-45" points="715.89 247.73 684.01 247.73 678.88 235.04 710.76 235.04 715.89 247.73"></polygon><polygon class="cls-22" points="721.02 260.42 434.11 260.42 428.98 247.73 715.89 247.73 721.02 260.42"></polygon><polygon class="cls-22" points="717.65 252.1 430.75 252.1 459.18 322.48 746.09 322.48 717.65 252.1"></polygon><polygon class="cls-44" points="477.3 269.62 442.53 269.62 437.64 257.54 472.42 257.54 477.3 269.62"></polygon><text class="cls-52" transform="translate(509.77 189.98) scale(.93) skewX(22)"><tspan x="0" y="0">Ac</tspan><tspan class="cls-57" x="30.87" y="0">t</tspan><tspan x="40.87" y="0">ive</tspan></text><text class="cls-50" transform="translate(443.87 265.26) scale(.93) skewX(22)"><tspan x="0" y="0">Person ID</tspan></text><text class="cls-50" transform="translate(432 243.45) scale(.93) skewX(22)"><tspan x="0" y="0">Details</tspan></text><text class="cls-50" transform="translate(463.9 243.45) scale(.93) skewX(22)"><tspan x="0" y="0">P</tspan><tspan class="cls-38" x="2.46" y="0">r</tspan><tspan x="3.96" y="0">ofiles</tspan></text><text class="cls-50" transform="translate(495.61 243.45) scale(.93) skewX(22)"><tspan x="0" y="0">Payments</tspan></text><text class="cls-50" transform="translate(591.67 243.45) scale(.93) skewX(22)"><tspan x="0" y="0">Documents</tspan></text><text class="cls-50" transform="translate(623.27 243.45) scale(.93) skewX(22)"><tspan x="0" y="0">Docusign</tspan></text><text class="cls-50" transform="translate(655.35 243.45) scale(.93) skewX(22)"><tspan x="0" y="0">Inspections</tspan></text><text class="cls-50" transform="translate(687.43 243.45) scale(.93) skewX(22)"><tspan x="0" y="0">Invoices</tspan></text><text class="cls-50" transform="translate(527.51 243.45) scale(.93) skewX(22)"><tspan x="0" y="0">Add</tspan><tspan class="cls-38" x="7.98" y="0">r</tspan><tspan class="cls-53" x="9.48" y="0">ess &amp; Eme</tspan><tspan class="cls-38" x="29.01" y="0">r</tspan><tspan x="30.51" y="0">gancy Contact</tspan></text><polygon class="cls-45" points="512.08 269.62 477.3 269.62 472.42 257.54 507.2 257.54 512.08 269.62"></polygon><text class="cls-51" transform="translate(478.64 265.26) scale(.93) skewX(22)"><tspan x="0" y="0">5621</tspan></text><polygon class="cls-44" points="546.85 269.62 512.08 269.62 507.2 257.54 541.97 257.54 546.85 269.62"></polygon><text class="cls-50" transform="translate(513.42 265.26) scale(.93) skewX(22)"><tspan x="0" y="0">Pay F</tspan><tspan class="cls-38" x="10.22" y="0">r</tspan><tspan class="cls-53" x="11.71" y="0">equency</tspan></text><polygon class="cls-45" points="581.63 269.62 546.85 269.62 541.97 257.54 576.75 257.54 581.63 269.62"></polygon><text class="cls-51" transform="translate(548.2 265.26) scale(.93) skewX(22)"><tspan class="cls-39" x="0" y="0">W</tspan><tspan class="cls-53" x="3.88" y="0">eekly</tspan></text><polygon class="cls-44" points="616.41 269.62 581.63 269.62 576.75 257.54 611.52 257.54 616.41 269.62"></polygon><text class="cls-51" transform="translate(582.97 265.26) scale(.93) skewX(22)"><tspan x="0" y="0">Use</tspan><tspan class="cls-47" x="7.01" y="0">r</tspan><tspan x="8.65" y="0">name</tspan></text><polygon class="cls-45" points="651.18 269.62 616.41 269.62 611.52 257.54 646.3 257.54 651.18 269.62"></polygon><text class="cls-51" transform="translate(617.75 265.26) scale(.93) skewX(22)"><tspan class="cls-5" x="0" y="0">T</tspan><tspan x="1.94" y="0">riangle30</tspan></text><polygon class="cls-44" points="685.96 269.62 651.18 269.62 646.3 257.54 681.08 257.54 685.96 269.62"></polygon><text class="cls-51" transform="translate(652.53 265.26) scale(.93) skewX(22)"><tspan x="0" y="0">Status</tspan></text><polygon class="cls-45" points="720.74 269.62 685.96 269.62 681.08 257.54 715.85 257.54 720.74 269.62"></polygon><text class="cls-51" transform="translate(687.3 265.26) scale(.93) skewX(22)"><tspan x="0" y="0">Active</tspan></text><polygon class="cls-44" points="482.18 281.71 447.41 281.71 442.53 269.62 477.3 269.62 482.18 281.71"></polygon><text class="cls-50" transform="translate(448.75 277.35) scale(.93) skewX(22)"><tspan x="0" y="0">First Name</tspan></text><polygon class="cls-45" points="516.96 281.71 482.18 281.71 477.3 269.62 512.08 269.62 516.96 281.71"></polygon><text class="cls-51" transform="translate(483.53 277.35) scale(.93) skewX(22)"><tspan x="0" y="0">John</tspan></text><polygon class="cls-44" points="551.74 281.71 516.96 281.71 512.08 269.62 546.85 269.62 551.74 281.71"></polygon><text class="cls-50" transform="translate(518.3 277.35) scale(.93) skewX(22)"><tspan x="0" y="0">Gender</tspan></text><polygon class="cls-45" points="586.51 281.71 551.74 281.71 546.85 269.62 581.63 269.62 586.51 281.71"></polygon><text class="cls-51" transform="translate(553.08 277.35) scale(.93) skewX(22)"><tspan x="0" y="0">Male</tspan></text><polygon class="cls-44" points="621.29 281.71 586.51 281.71 581.63 269.62 616.41 269.62 621.29 281.71"></polygon><text class="cls-51" transform="translate(587.86 277.35) scale(.93) skewX(22)"><tspan x="0" y="0">Last Name</tspan></text><polygon class="cls-45" points="656.07 281.71 621.29 281.71 616.41 269.62 651.18 269.62 656.07 281.71"></polygon><text class="cls-51" transform="translate(622.63 277.35) scale(.93) skewX(22)"><tspan x="0" y="0">Smith</tspan></text><polygon class="cls-44" points="690.84 281.71 656.07 281.71 651.18 269.62 685.96 269.62 690.84 281.71"></polygon><text class="cls-51" transform="translate(657.41 277.35) scale(.93) skewX(22)"><tspan x="0" y="0">Nationality</tspan></text><polygon class="cls-45" points="725.62 281.71 690.84 281.71 685.96 269.62 720.74 269.62 725.62 281.71"></polygon><text class="cls-51" transform="translate(692.19 277.35) scale(.93) skewX(22)"><tspan x="0" y="0">United Kingdom</tspan></text><polygon class="cls-44" points="487.07 293.79 452.29 293.79 447.41 281.71 482.18 281.71 487.07 293.79"></polygon><text class="cls-50" transform="translate(453.63 289.43) scale(.93) skewX(22)"><tspan x="0" y="0">Job Title</tspan></text><polygon class="cls-45" points="521.84 293.79 487.07 293.79 482.18 281.71 516.96 281.71 521.84 293.79"></polygon><text class="cls-51" transform="translate(488.41 289.43) scale(.93) skewX(22)"><tspan x="0" y="0">Delivery Driver</tspan></text><polygon class="cls-44" points="556.62 293.79 521.84 293.79 516.96 281.71 551.74 281.71 556.62 293.79"></polygon><text class="cls-50" transform="translate(523.18 289.43) scale(.93) skewX(22)"><tspan x="0" y="0">Is Manager</tspan></text><polygon class="cls-45" points="591.4 293.79 556.62 293.79 551.74 281.71 586.51 281.71 591.4 293.79"></polygon><polygon class="cls-44" points="626.17 293.79 591.4 293.79 586.51 281.71 621.29 281.71 626.17 293.79"></polygon><text class="cls-51" transform="translate(592.74 289.43) scale(.93) skewX(22)"><tspan x="0" y="0">Date of Birth</tspan></text><polygon class="cls-45" points="660.95 293.79 626.17 293.79 621.29 281.71 656.07 281.71 660.95 293.79"></polygon><text class="cls-51" transform="translate(627.51 289.43) scale(.93) skewX(22)"><tspan x="0" y="0">14/05/1986</tspan></text><polygon class="cls-44" points="695.73 293.79 660.95 293.79 656.07 281.71 690.84 281.71 695.73 293.79"></polygon><text class="cls-51" transform="translate(662.29 289.43) scale(.93) skewX(22)"><tspan x="0" y="0">Start Date</tspan></text><polygon class="cls-45" points="730.5 293.79 695.73 293.79 690.84 281.71 725.62 281.71 730.5 293.79"></polygon><text class="cls-51" transform="translate(697.07 289.43) scale(.93) skewX(22)"><tspan x="0" y="0">23/07/2021</tspan></text><polygon class="cls-44" points="491.95 305.88 457.17 305.88 452.29 293.79 487.07 293.79 491.95 305.88"></polygon><text class="cls-50" transform="translate(458.52 301.52) scale(.93) skewX(22)"><tspan x="0" y="0">Homesite</tspan></text><polygon class="cls-45" points="526.73 305.88 491.95 305.88 487.07 293.79 521.84 293.79 526.73 305.88"></polygon><text class="cls-51" transform="translate(493.29 301.52) scale(.93) skewX(22)"><tspan x="0" y="0">Amazon</tspan></text><polygon class="cls-44" points="561.5 305.88 526.73 305.88 521.84 293.79 556.62 293.79 561.5 305.88"></polygon><text class="cls-50" transform="translate(528.07 301.52) scale(.93) skewX(22)"><tspan x="0" y="0">Day Rate</tspan></text><polygon class="cls-45" points="596.28 305.88 561.5 305.88 556.62 293.79 591.4 293.79 596.28 305.88"></polygon><text class="cls-51" transform="translate(562.84 301.52) scale(.93) skewX(22)"><tspan class="cls-41" x="0" y="0">V</tspan><tspan x="2.47" y="0">an Day Rate</tspan></text><polygon class="cls-44" points="631.06 305.88 596.28 305.88 591.4 293.79 626.17 293.79 631.06 305.88"></polygon><text class="cls-51" transform="translate(597.62 301.52) scale(.93) skewX(22)"><tspan x="0" y="0">Manager</tspan></text><polygon class="cls-45" points="665.83 305.88 631.06 305.88 626.17 293.79 660.95 293.79 665.83 305.88"></polygon><text class="cls-51" transform="translate(632.4 301.52) scale(.93) skewX(22)"><tspan x="0" y="0">Jim Jones</tspan></text><polygon class="cls-44" points="700.61 305.88 665.83 305.88 660.95 293.79 695.73 293.79 700.61 305.88"></polygon><text class="cls-51" transform="translate(667.17 301.52) scale(.93) skewX(22)"><tspan x="0" y="0">Pe</tspan><tspan class="cls-46" x="4.77" y="0">r</tspan><tspan class="cls-56" x="6.41" y="0">mission Role</tspan></text><polygon class="cls-45" points="735.39 305.88 700.61 305.88 695.73 293.79 730.5 293.79 735.39 305.88"></polygon><text class="cls-51" transform="translate(701.95 301.52) scale(.93) skewX(22)"><tspan x="0" y="0">-</tspan></text><polygon class="cls-44" points="496.83 317.97 462.06 317.97 457.17 305.88 491.95 305.88 496.83 317.97"></polygon><text class="cls-50" transform="translate(463.4 313.61) scale(.93) skewX(22)"><tspan x="0" y="0">Class</tspan></text><polygon class="cls-45" points="531.61 317.97 496.83 317.97 491.95 305.88 526.73 305.88 531.61 317.97"></polygon><text class="cls-51" transform="translate(498.18 313.61) scale(.93) skewX(22)"><tspan x="0" y="0">Full Time</tspan></text><polygon class="cls-44" points="566.39 317.97 531.61 317.97 526.73 305.88 561.5 305.88 566.39 317.97"></polygon><text class="cls-50" transform="translate(532.95 313.61) scale(.93) skewX(22)"><tspan x="0" y="0">Assigned </tspan><tspan class="cls-40" x="18.42" y="0">V</tspan><tspan x="20.89" y="0">ehicle</tspan></text><polygon class="cls-45" points="601.16 317.97 566.39 317.97 561.5 305.88 596.28 305.88 601.16 317.97"></polygon><text class="cls-51" transform="translate(567.73 313.61) scale(.93) skewX(22)"><tspan x="0" y="0">SB19FON</tspan></text><polygon class="cls-44" points="635.94 317.97 601.16 317.97 596.28 305.88 631.06 305.88 635.94 317.97"></polygon><text class="cls-51" transform="translate(602.5 313.61) scale(.93) skewX(22)"><tspan class="cls-48" x="0" y="0">T</tspan><tspan x="1.87" y="0">ype</tspan></text><polygon class="cls-45" points="670.72 317.97 635.94 317.97 631.06 305.88 665.83 305.88 670.72 317.97"></polygon><text class="cls-51" transform="translate(637.28 313.61) scale(.93) skewX(22)"><tspan x="0" y="0">Contractor</tspan></text><ellipse class="cls-30" cx="495.83" cy="182.24" rx="5" ry="7.47" transform="translate(40.81 450.59) rotate(-50.71)"></ellipse><ellipse class="cls-37" cx="740.72" cy="337.12" rx="9.23" ry="13.79" transform="translate(10.75 696.92) rotate(-50.71)"></ellipse><g><path class="cls-10" d="M743.77,333.56h-8.98c-.39,0-.34,.51,.07,.73l5.71,3.03c.17,.09,.35,.09,.45,0l3.27-3.03c.24-.22-.12-.73-.52-.73Z"></path><path class="cls-10" d="M740.57,337.94l-5.07-2.69c-.23-.12-.43,0-.34,.23l1.63,4.03c.26,.65,1,1.17,1.65,1.17h7.44c.65,0,.96-.53,.7-1.17l-1.63-4.03c-.09-.22-.39-.35-.52-.23l-2.9,2.69c-.21,.19-.58,.19-.95,0Z"></path></g><path class="cls-37" d="M566.6,284.97h-7.72c-1.53,0-2.28,1.24-1.66,2.78,.62,1.53,2.37,2.78,3.9,2.78h7.72c1.53,0,2.28-1.24,1.66-2.78s-2.37-2.78-3.9-2.78Z"></path><ellipse class="cls-10" cx="560" cy="287.75" rx="1.73" ry="2.58" transform="translate(-17.32 538.95) rotate(-50.71)"></ellipse></g><rect class="cls-21" x="600.82" y="373.39" width="354.55" height="35.73" rx="15.1" ry="15.1"></rect><polygon class="cls-7" points="458.87 373.39 787.3 373.39 764.34 316.44 426.56 293.79 458.87 373.39"></polygon><g><rect class="cls-17" x="493.43" y="360.52" width="30.89" height="12.86"></rect><rect class="cls-17" x="532.05" y="360.52" width="30.89" height="12.86"></rect><rect class="cls-17" x="570.67" y="360.52" width="30.9" height="12.86"></rect><rect class="cls-17" x="609.28" y="360.52" width="30.89" height="12.86"></rect><rect class="cls-17" x="647.9" y="360.52" width="30.89" height="12.86"></rect><rect class="cls-17" x="686.52" y="360.52" width="30.89" height="12.86"></rect><rect class="cls-17" x="725.14" y="360.52" width="30.9" height="12.86"></rect><rect class="cls-17" x="763.76" y="360.52" width="30.9" height="12.86"></rect><rect class="cls-17" x="802.01" y="360.52" width="30.9" height="12.86"></rect><rect class="cls-17" x="840.63" y="360.52" width="30.9" height="12.86"></rect><rect class="cls-17" x="879.25" y="360.52" width="30.9" height="12.86"></rect></g><path class="cls-25" d="M678.46,103.39H349.27l7.74,19.06h329.14l-7.68-19.06Z"></path><path class="cls-11" d="M678.46,103.39H349.27l41.81,103.01,308.14-51.51-20.76-51.51Z"></path><g class="cls-55"><rect class="cls-10" x="802.01" y="360.52" width="30.9" height="4.94"></rect><rect class="cls-10" x="725.14" y="360.52" width="30.9" height="4.94"></rect><rect class="cls-10" x="493.43" y="360.52" width="30.89" height="4.94"></rect><rect class="cls-10" x="840.63" y="360.52" width="30.9" height="4.94"></rect><rect class="cls-10" x="879.25" y="360.52" width="30.9" height="4.94"></rect><rect class="cls-10" x="763.76" y="360.52" width="30.9" height="4.94"></rect><rect class="cls-10" x="532.05" y="360.52" width="30.89" height="4.94"></rect><rect class="cls-10" x="570.67" y="360.52" width="30.9" height="4.94"></rect><rect class="cls-10" x="686.52" y="360.52" width="30.89" height="4.94"></rect><rect class="cls-10" x="647.9" y="360.52" width="30.89" height="4.94"></rect><rect class="cls-10" x="609.28" y="360.52" width="30.89" height="4.94"></rect></g></g><ellipse class="cls-54" cx="1222.64" cy="766.77" rx="18.34" ry="247.07" transform="translate(451.51 1986.67) rotate(-89.8)"></ellipse><g><path class="cls-13" d="M973.27,274.68c-27.01,9.73-54.42,18.65-82.16,25.98-13.88,3.71-27.85,7.03-41.89,9.77-14.05,2.78-28.22,5.1-42.44,6.45l-3.17,33.08c15.04,4.28,30.29,7.55,45.62,10.31,15.35,2.8,30.77,4.97,46.22,6.71,30.93,3.56,61.94,5.38,93.04,6.23l25.61-.35c35.36-.48,61.1-33.71,52.74-68.07h0c-7.95-32.67-43.09-50.65-74.24-37.97l-19.34,7.87Z"></path><path class="cls-54" d="M973.27,274.68c-27.01,9.73-54.42,18.65-82.16,25.98-13.88,3.71-27.85,7.03-41.89,9.77-14.05,2.78-28.22,5.1-42.44,6.45l-3.17,33.08c15.04,4.28,30.29,7.55,45.62,10.31,15.35,2.8,30.77,4.97,46.22,6.71,30.93,3.56,61.94,5.38,93.04,6.23l25.61-.35c35.36-.48,61.1-33.71,52.74-68.07h0c-7.95-32.67-43.09-50.65-74.24-37.97l-19.34,7.87Z"></path><path class="cls-13" d="M991.5,267.26c31.73-12.91,67.53,5.4,75.63,38.69h0s-110.28,36.73-262.11,29.34l1.76-18.41c14.21-1.36,28.38-3.68,42.44-6.45,14.05-2.74,28.01-6.05,41.89-9.77,27.74-7.33,55.15-16.25,82.16-25.98l18.23-7.42Z"></path><circle class="cls-13" cx="803.91" cy="325.02" r="38.12"></circle><path class="cls-13" d="M1318.9,568.12l1.87,177.2,21.68,14.17c5.79,3.79,3.23,12.79-3.69,12.95l-54.94,1.29c-10.47,.25-19.76-6.66-22.55-16.75l-38.2-203.92,95.84,15.06Z"></path><polygon class="cls-54" points="1242.54 657.04 1223.06 553.07 1318.9 568.12 1319.82 654.81 1242.54 657.04"></polygon><path class="cls-13" d="M1086.98,566.44l1.67,177.2-21.39,14.6c-5.72,3.9-2.97,12.85,3.95,12.87l54.95,.2c10.47,.04,19.63-7.05,22.21-17.2l34.12-204.64-95.52,16.96Z"></path><polygon class="cls-54" points="1165.1 653.82 1182.5 549.47 1086.98 566.44 1087.8 653.13 1165.1 653.82"></polygon><rect class="cls-13" x="964.82" y=".62" width="456.45" height="624.48" rx="53.3" ry="53.3" transform="translate(2384.96 629.99) rotate(-179.8)"></rect><path class="cls-55" d="M1173.98,117.86c9.77,.52,17.28,8.86,16.76,18.63l-2.24,42.47c-.52,9.77-8.86,17.28-18.63,16.76-9.77-.52-17.28-8.86-16.76-18.63l2.24-42.47c.52-9.77,8.86-17.28,18.63-16.76Z"></path><path class="cls-55" d="M1075.35,114.75c9.77,.52,17.28,8.86,16.76,18.63l-2.24,42.47c-.52,9.77-8.86,17.28-18.63,16.76-9.77-.52-17.28-8.86-16.76-18.63l2.24-42.47c.52-9.77,8.86-17.28,18.63-16.76Z"></path><path class="cls-55" d="M1153.66,230.6c-13.17,7.93-23.57,17.13-52.3,2.57-1.6-.81-1.38,6.99-.3,8.95,4.57,8.4,34.21,21.35,53.44-2.7,1.53-1.91,.65-9.72-.84-8.82Z"></path><path class="cls-55" d="M1193.67,75.03c31.03,6.42,52.98,31.38,25.5,21.01-27.48-10.37-39.9-11.2-58.68-11.31-18.77-.12-8.31-18.29,33.18-9.7Z"></path><path class="cls-55" d="M1064.77,75.26c-23.86,7.24-38.86,31.86-18.15,20.98,20.7-10.89,30.42-12.12,45.2-12.9,14.79-.78,4.86-17.76-27.05-8.08Z"></path><path class="cls-12" d="M1329.05,55.48c-13.81,.32-224.6-1.68-363.3-3.04C966.09,23.34,989.83-.1,1018.99,0l350.34,1.25c29.3,.1,52.97,23.94,52.86,53.24l-1.85,518.37c-.09,26.44-19.52,48.29-44.85,52.23,1.03-138.14,3.58-496.06,2.8-529.37-.97-41.37-28.55-40.72-49.24-40.23Z"></path><path class="cls-54" d="M965.35,164.19c5.42,119.19,17.56,383.63,19.21,398.59,2.13,19.35,10.97,39.71,38.63,42.4,23.51,2.29,246.29,16.29,311.33,20.43l-317.48-.85c-29.3-.1-53.25-24.22-53.14-53.52l1.45-407.05Z"></path><path class="cls-13" d="M1312.8,507.49c10.59,26.68,20.38,53.79,28.59,81.28,4.16,13.75,7.92,27.61,11.1,41.56,3.23,13.96,6,28.04,7.81,42.21l33.16,2.11c3.8-15.17,6.58-30.52,8.85-45.93,2.31-15.43,3.98-30.91,5.22-46.41,2.57-31.03,3.39-62.08,3.25-93.19l-1.17-25.59c-1.61-35.33-35.65-59.99-69.72-50.53h0c-32.4,9-49.24,44.69-35.58,75.41l8.48,19.08Z"></path><path class="cls-54" d="M1304.8,489.5c-13.92-31.31,3.23-67.67,36.25-76.83h0s40.24,109.04,37.71,261.03l-18.46-1.17c-1.81-14.16-4.58-28.25-7.81-42.21-3.19-13.95-6.95-27.81-11.1-41.56-8.22-27.49-18.01-54.6-28.59-81.28l-8-17.98Z"></path><circle class="cls-13" cx="1368.54" cy="675.14" r="38.12"></circle><g><path class="cls-54" d="M1421.75,124.43h-137.82v-3.89c0-12.56-10.18-22.73-22.73-22.73h-61.35c-15.71,0-53.61,15.82-53.61,31.53l-4.18-3.08c-7.22-2.95-14.37-1.96-20.14,.44l-2.09-5.35c0-5.59-26.9-23.53-39.45-23.53h-77.6c-12.56,0-22.73,10.18-22.73,22.73v3.89h-14.54l-.04,11.18h14.58c0,45.88,37.19,83.08,83.08,83.08h7.51c28.32,0,51.28-22.96,51.28-51.28v-28.02c3.66-2.57,11.96-6.81,20.14-.19v28.21c0,28.32,22.96,51.28,51.28,51.28h7.51c45.88,0,83.08-37.19,83.08-83.08h137.82v-11.18Z"></path><path class="cls-42" d="M1204.62,97.55h49.54c9.46,0,17.14,7.68,17.14,17.14v13.12c0,43.84-35.59,79.44-79.44,79.44h-5.56c-25.22,0-45.69-20.47-45.69-45.69h0c0-35.33,28.68-64.01,64.01-64.01Z"></path><path class="cls-42" d="M996.46,97.55h49.54c35.33,0,64.01,28.68,64.01,64.01h0c0,25.22-20.47,45.69-45.69,45.69h-7.09c-43,0-77.91-34.91-77.91-77.91v-14.65c0-9.46,7.68-17.14,17.14-17.14Z"></path><path class="cls-4" d="M1204.62,97.55h49.54c9.46,0,17.14,7.68,17.14,17.14v15.53c0,42.51-34.52,77.03-77.03,77.03h-7.97c-25.22,0-45.69-20.47-45.69-45.69h0c0-35.33,28.68-64.01,64.01-64.01Z"></path><path class="cls-4" d="M1100.79,130.84s25.19-25.98,48.31,0"></path><line class="cls-3" x1="1428.44" y1="124.17" x2="1271.3" y2="124.17"></line><line class="cls-3" x1="955" y1="124.17" x2="978.6" y2="124.17"></line><path class="cls-4" d="M995.74,97.55h49.54c35.33,0,64.01,28.68,64.01,64.01h0c0,25.22-20.47,45.69-45.69,45.69h-4.86c-44.23,0-80.14-35.91-80.14-80.14v-12.42c0-9.46,7.68-17.14,17.14-17.14Z"></path></g></g></g></g></svg>