<svg xmlns="http://www.w3.org/2000/svg" xmlns:xlink="http://www.w3.org/1999/xlink" id="Layer_2" viewBox="0 0 1621.6 1157.39"><defs><style>.cls-1,.cls-2,.cls-3,.cls-4{fill:none;}.cls-5{letter-spacing:-.09em;}.cls-6{clip-path:url(#clippath);}.cls-7{opacity:.1;}.cls-8{fill:#67b26d;}.cls-9{fill:#e95815;}.cls-10,.cls-11,.cls-12{fill:#fff;}.cls-13{fill:#fcd932;}.cls-14{fill:#999;}.cls-15{fill:#9d9d9c;}.cls-16{fill:#8c6239;}.cls-17{fill:#b3b3b3;}.cls-18{fill:#664020;}.cls-19{fill:#a9e0d6;}.cls-20{fill:#b2cec9;}.cls-21{fill:#bbb;}.cls-22,.cls-23{fill:#ccc;}.cls-24{fill:#dfedea;}.cls-25{fill:#e0e0e0;}.cls-26{fill:#04b4c2;}.cls-27{fill:#1d1d1b;}.cls-28{fill:#706f6f;}.cls-29,.cls-30{fill:#959595;}.cls-31{fill:#27c93a;}.cls-32{fill:#37d7ff;}.cls-33{fill:#3c3c3b;}.cls-34{fill:#4b7f4e;}.cls-35{fill:#5f8493;}.cls-36{fill:#44aab6;}.cls-37{fill:#754c24;}.cls-38{fill:#4e2084;}.cls-39{letter-spacing:-.02em;}.cls-40{letter-spacing:-.02em;}.cls-41{letter-spacing:-.05em;}.cls-42{letter-spacing:-.05em;}.cls-43{fill:#ff7bac;opacity:.19;}.cls-2{stroke:#9d9d9c;stroke-width:.26px;}.cls-2,.cls-44,.cls-45,.cls-23,.cls-46,.cls-4{stroke-miterlimit:10;}.cls-47{letter-spacing:.02em;}.cls-48{letter-spacing:.02em;}.cls-44{fill:#575756;stroke:#1d1d1b;stroke-width:.1px;}.cls-49{letter-spacing:-.11em;}.cls-3{stroke-linecap:round;stroke-linejoin:round;}.cls-3,.cls-4{stroke:#562c2c;stroke-width:11.18px;}.cls-50{opacity:.2;}.cls-51{fill:#4d4d4d;}.cls-51,.cls-52{font-size:4.03px;}.cls-51,.cls-52,.cls-53{font-family:Avenir-Heavy, Avenir;}.cls-52{fill:#333;}.cls-54{letter-spacing:0em;}.cls-55,.cls-12{opacity:.25;}.cls-56,.cls-11{opacity:.5;}.cls-57{letter-spacing:0em;}.cls-45{fill:#e6e6e6;}.cls-45,.cls-23,.cls-46{stroke:#b3b3b3;stroke-width:.72px;}.cls-46{fill:#f2f2f2;}.cls-58{letter-spacing:0em;}.cls-53{font-size:25.64px;}.cls-30{opacity:.47;}</style><clipPath id="clippath"><ellipse class="cls-1" cx="490.1" cy="456.12" rx="27.64" ry="41.28" transform="translate(-173.27 546.6) rotate(-50.71)"></ellipse></clipPath></defs><g id="Layer_1-2"><rect class="cls-20" width="1621.6" height="1157.39"></rect><g><g><rect class="cls-18" x="52.71" y="676.31" width="980.72" height="54.78" rx="21.59" ry="21.59"></rect><rect class="cls-16" x="186.14" y="676.31" width="847.29" height="54.78" rx="22.26" ry="22.26"></rect><path class="cls-16" d="M840.07,731.09h19.89c2.07,0,3.75,1.68,3.75,3.75v292.66c0,2.07-1.68,3.75-3.75,3.75h-19.89c-2.07,0-3.75-1.68-3.75-3.75v-292.66c0-2.07,1.68-3.75,3.75-3.75Z"></path><path class="cls-16" d="M974.68,731.09h19.89c2.07,0,3.75,1.68,3.75,3.75v292.66c0,2.07-1.68,3.75-3.75,3.75h-19.89c-2.07,0-3.75-1.68-3.75-3.75v-292.66c0-2.07,1.68-3.75,3.75-3.75Z"></path><path class="cls-16" d="M92.1,731.09h19.89c2.07,0,3.75,1.68,3.75,3.75v292.66c0,2.07-1.68,3.75-3.75,3.75h-19.89c-2.07,0-3.75-1.68-3.75-3.75v-292.66c0-2.07,1.68-3.75,3.75-3.75Z"></path><path class="cls-16" d="M226.71,731.09h19.89c2.07,0,3.75,1.68,3.75,3.75v292.66c0,2.07-1.68,3.75-3.75,3.75h-19.89c-2.07,0-3.75-1.68-3.75-3.75v-292.66c0-2.07,1.68-3.75,3.75-3.75Z"></path><path class="cls-56" d="M840.07,731.09h19.89c2.07,0,3.75,1.68,3.75,3.75v292.66c0,2.07-1.68,3.75-3.75,3.75h-19.89c-2.07,0-3.75-1.68-3.75-3.75v-292.66c0-2.07,1.68-3.75,3.75-3.75Z"></path><path class="cls-55" d="M974.68,731.09h19.89c2.07,0,3.75,1.68,3.75,3.75v292.66c0,2.07-1.68,3.75-3.75,3.75h-19.89c-2.07,0-3.75-1.68-3.75-3.75v-292.66c0-2.07,1.68-3.75,3.75-3.75Z"></path><path class="cls-56" d="M92.1,731.09h19.89c2.07,0,3.75,1.68,3.75,3.75v292.66c0,2.07-1.68,3.75-3.75,3.75h-19.89c-2.07,0-3.75-1.68-3.75-3.75v-292.66c0-2.07,1.68-3.75,3.75-3.75Z"></path><path class="cls-55" d="M226.71,731.09h19.89c2.07,0,3.75,1.68,3.75,3.75v292.66c0,2.07-1.68,3.75-3.75,3.75h-19.89c-2.07,0-3.75-1.68-3.75-3.75v-292.66c0-2.07,1.68-3.75,3.75-3.75Z"></path><rect class="cls-55" x="66.21" y="1011.95" width="951" height="29.46" rx="14.73" ry="14.73"></rect><path class="cls-37" d="M836.32,1027.5c0,2.07,1.68,3.75,3.75,3.75h19.89c2.07,0,3.75-1.68,3.75-3.75v-248.82h-27.39v248.82Z"></path><path class="cls-16" d="M970.93,1027.5c0,2.07,1.68,3.75,3.75,3.75h19.89c2.07,0,3.75-1.68,3.75-3.75v-248.82h-27.39v248.82Z"></path><path class="cls-37" d="M88.35,1027.5c0,2.07,1.68,3.75,3.75,3.75h19.89c2.07,0,3.75-1.68,3.75-3.75v-248.82h-27.39v248.82Z"></path><path class="cls-16" d="M222.96,1027.5c0,2.07,1.68,3.75,3.75,3.75h19.89c2.07,0,3.75-1.68,3.75-3.75v-248.82h-27.39v248.82Z"></path><path class="cls-12" d="M1031.2,689.59c-3.71-7.84-11.67-13.28-20.92-13.28H75.86c-9.25,0-17.21,5.44-20.92,13.28h976.25Z"></path><path class="cls-55" d="M56.43,720.5c4.13,6.37,11.28,10.59,19.43,10.59H1010.28c8.15,0,15.31-4.22,19.43-10.59H56.43Z"></path></g><g><g><path class="cls-8" d="M887.94,574.78s.95-136.25-119.1-204.57l119.1,204.57Z"></path><path class="cls-34" d="M887.94,574.78l-119.1-204.57s35.65,174.52,119.1,204.57Z"></path></g><g><path class="cls-8" d="M886.64,598.78s119.46-127.09,57.61-301.74l-57.61,301.74Z"></path><path class="cls-34" d="M886.64,598.78l57.61-301.74s-115.76,196.72-57.61,301.74Z"></path></g><g><path class="cls-8" d="M885.56,567.57s74.27,30.25,152.92-113.77l-152.92,113.77Z"></path><path class="cls-34" d="M885.56,567.57l152.92-113.77s-107.79,9.95-152.92,113.77Z"></path></g><path class="cls-35" d="M848.25,552.83h102.93c2.09,0,3.78,1.7,3.78,3.78v108.29c0,9.74-7.91,17.66-17.66,17.66h-75.18c-9.74,0-17.66-7.91-17.66-17.66v-108.29c0-2.09,1.7-3.78,3.78-3.78Z"></path><path class="cls-55" d="M954.46,643.76c-6.32,11.68-17.45,22.87-36.87,22.87h-35.75c-19.43,0-30.55-11.19-36.87-22.87,3.27,21.87,22.25,38.79,45,38.79h19.5c22.75,0,41.73-16.92,45-38.79Z"></path><path class="cls-55" d="M945.21,552.83h-90.99c-5.36,0-9.75,4.39-9.75,9.75v45.07h110.49v-45.07c0-5.36-4.39-9.75-9.75-9.75Z"></path><rect class="cls-35" x="824.36" y="550.85" width="150.7" height="40.73" rx="3.6" ry="3.6"></rect><path class="cls-12" d="M965.8,550.85h-132.17c-5.1,0-9.27,4.17-9.27,9.27v2.77h150.7v-2.77c0-5.1-4.17-9.27-9.27-9.27Z"></path></g><g><path class="cls-14" d="M380.33,396.06l102.79,252.88c2.21,5.43,8.4,8.05,13.84,5.84l9.91-4.55c1.99-.81,3.58-2.15,4.72-3.79l6.61,15.36h311.89l-4.18-10.1,3.62-1.47c5.43-2.21,8.05-8.4,5.84-13.84l-102.78-252.88c-1.47-3.62-4.71-5.94-8.31-6.47-1.21-.36-2.47-.61-3.8-.61H401.98c-1.6,0-3.11,.33-4.53,.84-.46,.12-.92,.22-1.38,.4"></path><path class="cls-24" d="M731.17,376.43H401.98l109.6,270h328.43l-108.84-270Z"></path><rect class="cls-14" x="500.56" y="646.43" width="450.89" height="35.73" rx="15.1" ry="15.1"></rect><g><polygon class="cls-10" points="823.34 626.9 511.38 626.9 420.96 403.1 732.92 403.1 823.34 626.9"></polygon><polygon class="cls-38" points="736.75 412.58 424.79 412.58 420.96 403.1 732.92 403.1 736.75 412.58"></polygon><path class="cls-38" d="M758.15,500.95H476.11c-1.35,0-2.88-1.09-3.42-2.44h0c-.54-1.35,.11-2.44,1.45-2.44h282.03c1.35,0,2.88,1.09,3.42,2.44h0c.54,1.35-.11,2.44-1.45,2.44Z"></path><g class="cls-6"><polygon class="cls-19" points="574.83 519.05 459.09 519.05 412.33 403.31 528.07 403.31 574.83 519.05"></polygon><g><path class="cls-9" d="M509.77,476.35c2.05,2.24,4.05,4.52,5.94,6.85,.95,1.16,1.87,2.34,2.74,3.53,.88,1.19,1.72,2.39,2.49,3.61l2.87-.09c-.34-1.35-.78-2.72-1.26-4.08-.48-1.36-1.01-2.73-1.58-4.09-1.14-2.73-2.42-5.44-3.79-8.15l-1.21-2.22c-1.67-3.07-5.6-4.93-8.04-3.82h0c-2.32,1.05-2.18,4.31,.3,6.87l1.54,1.59Z"></path><path class="cls-55" d="M508.31,474.85c-2.53-2.61-2.68-5.93-.31-7h0s8.12,9.17,14.53,22.44l-1.6,.05c-.77-1.22-1.61-2.42-2.49-3.61-.87-1.19-1.79-2.37-2.74-3.53-1.89-2.33-3.89-4.61-5.94-6.85l-1.45-1.5Z"></path><ellipse class="cls-9" cx="521.74" cy="490.5" rx="2.73" ry="4.08" transform="translate(-188.27 583.7) rotate(-50.71)"></ellipse><path class="cls-9" d="M509.95,480.45l7.55,15.53,2.38,1.3c.64,.35,.7,1.13,.1,1.12l-4.82-.03c-.92,0-1.97-.63-2.55-1.53l-11.64-17.96,8.98,1.57Z"></path><path class="cls-9" d="M488.47,480.32l7.87,15.53-1.36,1.27c-.36,.34,.19,1.12,.8,1.13l4.56,.03c1.04,0,1.59-.77,1.28-1.8l-5.36-17.62-7.78,1.46Z"></path><path class="cls-55" d="M506.85,487.97l-5.89-9.08,8.98,1.57,3.37,6.93c-1.89,.2-4.49,.46-6.46,.59Z"></path><polygon class="cls-55" points="496.25 478.85 499.02 487.96 492.49 488.25 488.47 480.32 496.25 478.85"></polygon><path class="cls-9" d="M479.94,428.5l52.46,50.25c1.94,1.86,1.64,4.31-.53,4.38l-60.01,2.06c-2.18,.07-4.58-2.28-4.3-4.22l7.55-52.31c.27-1.9,2.93-1.99,4.83-.17Z"></path><path class="cls-56" d="M481.73,448.45c-1.86,1.36-1.17,5.07,.01,3.24s2.1-2.14,3.59-2.45-1.12-2.6-3.61-.79Z"></path><path class="cls-56" d="M491.96,447.96c2.34,.63,4.96,3.96,2.66,2.74-2.29-1.22-3.15-1.22-4.39-1.07-1.24,.15-1.41-2.51,1.72-1.67Z"></path><path class="cls-56" d="M490.46,462.23l5.08,.33c.19,.01,.38,.25,.32,.41-.33,.92-1.54,2.92-5.44-.32-.2-.17-.18-.44,.04-.43Z"></path><path class="cls-56" d="M487.34,453.5c-.84,.05-1.19,.79-.79,1.64l1.72,3.72c.4,.86,1.4,1.51,2.23,1.46,.84-.05,1.19-.79,.79-1.64l-1.72-3.72c-.4-.86-1.4-1.51-2.23-1.46Z"></path><path class="cls-56" d="M492.02,453.5c-.84,.05-1.19,.79-.79,1.64l1.72,3.72c.4,.86,1.4,1.51,2.23,1.46,.84-.05,1.19-.79,.79-1.64l-1.72-3.72c-.4-.86-1.4-1.51-2.23-1.46Z"></path><path class="cls-12" d="M475.46,485.06l5.07-56h0l-.59-.57c-1.9-1.82-4.56-1.73-4.83,.17l-7.55,52.31c-.28,1.94,2.12,4.29,4.3,4.22l3.6-.12Z"></path><path class="cls-55" d="M525.08,483.36l6.79-.23c2.18-.07,2.47-2.52,.53-4.38l-46.21-44.26,38.89,48.88Z"></path><path class="cls-9" d="M487.66,476.17c0,2.33,.08,4.7,.32,7.1,.11,1.2,.27,2.41,.47,3.63,.2,1.22,.45,2.45,.78,3.69l-2.84,.17c-.86-1.33-1.64-2.68-2.38-4.03-.74-1.35-1.43-2.71-2.08-4.07-1.31-2.72-2.46-5.44-3.53-8.16l-.79-2.24c-1.09-3.09,1.04-5.23,4.36-4.39h0c3.16,.81,5.88,3.94,5.75,6.62l-.08,1.67Z"></path><path class="cls-55" d="M481.95,467.86c.13,2.08,.96,10.97,5.82,22.82l-1.36,.08c-.86-1.33-1.64-2.68-2.38-4.03-.74-1.35-1.43-2.71-2.08-4.07-1.31-2.72-2.46-5.44-3.53-8.16l-.79-2.24c-1.08-3.08,1.02-5.21,4.31-4.4Z"></path><ellipse class="cls-9" cx="488.39" cy="492.7" rx="2.73" ry="4.08" transform="translate(-202.2 558.69) rotate(-50.71)"></ellipse><g><path class="cls-50" d="M496.58,485.54s-.02-.02-.03-.04c-.01-.02-.03-.04-.04-.06-.1-.14-.21-.18-.28-.19,0-.08-.01-.2-.1-.33l-.11-.14-.05-.06-.12-.17-.02-.02h0l-.08-.12-.17-.05c.02-.06,.01-.16-.12-.34l-.1-.13-.15-.21-.04-.05-.29-.39-.03-.04-.05-.06h0c.31-.35,.27-.95-.16-1.52-.02-.02-.03-.04-.05-.06-.01-.02-.03-.04-.04-.06-.29-.39-.69-.67-1.1-.82,.21-.41,.1-.89,.1-.9-.02-.14-.07-.28-.12-.42-.37-.91-1.51-1.76-2.44-1.94-.23-.49-.99-1.59-1.15-1.69-.21-.13-.44,.23-.42,.41,0,0,.46,.91,.75,1.42-.63,.26-.87,.96-.54,1.79,.16,.39,.42,.76,.77,1.08-.29,.16-.44,.48-.35,.89l.39,1.76c.08,.37,.47,.72,.86,.79l.26,.04c.05,.03,.11,.06,.16,.08h0l.59,2.68h0v.03s.42,.25,.62,.29c.21,.04,.31-.11,.25-.36,0-.01,0-.03-.01-.04,0-.02,0-.04,0-.06-.03-.14-.12-.22-.19-.26,.05-.05,.1-.14,.07-.27l-.02-.1h0l-.04-.2-.02-.07-.04-.16-.15-.11c.05-.03,.11-.1,.07-.29l-.11-.5-.05-.21h0l-.03-.16v-.03h0v-.02s.09-.02,.13-.03l.29,.05c.15,.03,.28,0,.38-.05l1.09,2.11h0l.02,.04s.43,.15,.61,.13c.19-.02,.22-.21,.09-.45,0-.01-.02-.03-.02-.04,0-.02-.02-.04-.03-.07-.06-.12-.15-.19-.22-.22-.01,0-.02,0-.03-.01,.02-.07,.04-.18-.03-.31l-.05-.1h0l-.12-.23v-.03l-.1-.18-.17-.08s.05-.14-.04-.33l-.05-.1h0l-.1-.2-.14-.27-.04-.07-.15-.28h.02s.09,0,.13,0h0l1.93,2.58h0l.02,.03s.42,.07,.58,0c.16-.06,.14-.27-.03-.5Zm-5.67-4.54c-.01-.07,0-.12,.02-.17,.15,.09,.34,.18,.53,.26-.03,.05-.06,.1-.08,.15l-.3-.05c-.07-.01-.15-.08-.16-.15v-.04Zm.83-.17c-.07,.04-.14,.08-.19,.14-.19-.07-.36-.15-.51-.23,.04-.01,.09-.01,.14,0l.53,.09s.02,0,.03,0Zm-1.25-.46c-.33-.29-.58-.64-.72-1-.3-.74-.09-1.37,.47-1.62,.04,.07,.08,.13,.1,.15,.17,.2,.9,.16,.85-.06,0-.03-.11-.17-.14-.23,.84,.18,1.86,.93,2.19,1.75,.05,.13,.09,.26,.11,.39,0,0,.11,.47-.1,.85l.09,.06c-.31-.09-.62-.1-.88,0-.04,.02-.08,.04-.12,.06-.01,0-.03,0-.04,0-.2-.12-.42-.21-.63-.25l-.28-.05h0l-.33-.06c-.2-.03-.37-.02-.52,.03l-.03-.02Z"></path><g><g><path class="cls-29" d="M493.52,483l2.05,2.74s.42,.07,.58,0,.14-.27-.03-.5-.37-.19-.37-.19c0,0,.07-.21-.09-.42l-.31-.41-.29-.08s.16-.09-.08-.41l-1.03-1.38-.43,.65Z"></path><path class="cls-29" d="M492.09,480.48c-.61,.24-.68,1.02-.15,1.73s1.46,1.09,2.07,.84,.68-1.02,.15-1.73c-.53-.71-1.46-1.09-2.07-.84Zm.67,.9c-.18,.07-.46-.04-.61-.25s-.14-.44,.04-.51,.46,.04,.61,.25,.14,.44-.04,.51Z"></path><g><path class="cls-29" d="M495.52,484.69c.07,.1,.15,.26,.15,.26,0,0,.07-.21-.09-.42l-.31-.41-.29-.08,.14,.11,.4,.54Z"></path><path class="cls-29" d="M495.82,485.09l.35,.46c.04-.1,0-.25-.13-.41-.18-.24-.37-.19-.37-.19,0,0,.07,.02,.15,.14Z"></path><path class="cls-29" d="M494.9,483.63l-.59-.78-.2-.02s.74,.99,.79,1.05,.07,.17,.07,.17c0,0,.16-.09-.08-.41Z"></path></g><path class="cls-21" d="M492,480.36c-.61,.24-.68,1.02-.15,1.73s1.46,1.09,2.07,.84c.61-.24,.68-1.02,.15-1.73s-1.46-1.09-2.07-.84Zm.66,.88c-.18,.07-.46-.04-.61-.25s-.14-.44,.04-.51,.46,.04,.61,.25,.14,.44-.04,.51Z"></path><path class="cls-21" d="M493.85,482.93l.11,.14,1.94,2.59s.1,0,.17-.03c.16-.06,.14-.27-.03-.5s-.37-.19-.37-.19c0,0,.07-.21-.09-.42l-.31-.41-.29-.08s.16-.09-.08-.41c-.16-.22-.49-.42-.69-.69l-.13-.17-.23,.15Z"></path><path class="cls-25" d="M495.7,485.67c.06,0,.13,0,.2,0l-2.03-2.71-.12,.1,1.95,2.61Z"></path><polygon class="cls-21" points="493.75 483.05 493.61 483.13 495.54 485.71 495.7 485.67 493.75 483.05"></polygon><path class="cls-30" d="M493.83,482.11l-.79,.32s-.04,0-.05-.02l-.06-.07s-.01-.04,0-.05l.79-.32s.04,0,.05,.02l.06,.07s.01,.04,0,.05Z"></path></g><g><path class="cls-29" d="M492.57,483.1l1.49,2.88s.43,.15,.61,.13,.22-.21,.09-.45-.35-.25-.35-.25c0,0,.13-.17,.01-.4l-.22-.43-.29-.13s.2-.04,.02-.38l-.75-1.45-.62,.49Z"></path><path class="cls-29" d="M491.69,480.55c-.71,.08-.98,.76-.59,1.5s1.28,1.29,1.99,1.2c.71-.08,.98-.76,.59-1.5s-1.28-1.29-1.99-1.2Zm.49,.94c-.21,.02-.48-.13-.59-.36s-.04-.42,.18-.45,.48,.13,.59,.36,.04,.42-.18,.45Z"></path><g><path class="cls-29" d="M494.27,485.04c.05,.1,.09,.26,.09,.26,0,0,.13-.17,.01-.4l-.22-.43-.29-.13,.12,.13,.29,.57Z"></path><path class="cls-29" d="M494.49,485.46l.25,.49c.07-.08,.06-.22-.03-.39-.13-.25-.35-.25-.35-.25,0,0,.07,.04,.13,.16Z"></path><path class="cls-29" d="M493.89,483.96l-.42-.82-.2-.06s.54,1.04,.57,1.1,.04,.16,.04,.16c0,0,.2-.04,.02-.38Z"></path></g><path class="cls-21" d="M491.62,480.43c-.71,.08-.98,.76-.59,1.5,.39,.75,1.28,1.29,1.99,1.2,.71-.08,.98-.76,.59-1.5s-1.28-1.29-1.99-1.2Zm.48,.93c-.21,.02-.48-.13-.59-.36s-.04-.42,.18-.45,.48,.13,.59,.36,.04,.42-.18,.45Z"></path><path class="cls-21" d="M492.94,483.11l.08,.15,1.41,2.73s.11,.02,.19,.01c.19-.02,.22-.21,.09-.45s-.35-.25-.35-.25c0,0,.13-.17,.01-.4l-.22-.43-.29-.13s.2-.04,.02-.38c-.12-.23-.42-.48-.56-.76l-.09-.17-.29,.09Z"></path><path class="cls-25" d="M494.22,485.94c.07,.02,.14,.04,.21,.05l-1.47-2.85-.15,.06,1.41,2.74Z"></path><polygon class="cls-21" points="492.8 483.2 492.64 483.24 494.04 485.94 494.22 485.94 492.8 483.2"></polygon><path class="cls-30" d="M493.13,482.38l-.92,.11s-.04-.01-.05-.03l-.04-.08s0-.04,.02-.04l.92-.11s.04,.01,.05,.03l.04,.08s0,.04-.02,.04Z"></path></g><g><g><path class="cls-29" d="M491.2,483.57l.63,2.85s.41,.25,.61,.29,.31-.11,.25-.36-.29-.31-.29-.31c0,0,.2-.1,.15-.33l-.09-.43-.26-.19s.22,.02,.15-.31l-.32-1.44-.83,.23Z"></path><path class="cls-29" d="M491.11,481.18c-.79-.14-1.31,.35-1.14,1.09s.94,1.45,1.73,1.59,1.31-.35,1.14-1.09-.94-1.45-1.73-1.59Zm.21,.93c-.24-.04-.47-.25-.51-.47s.1-.36,.34-.32,.47,.25,.51,.47-.1,.36-.34,.32Z"></path><g><path class="cls-29" d="M492.38,485.7c.02,.1,0,.25,0,.25,0,0,.2-.1,.15-.33l-.09-.43-.26-.19,.08,.14,.12,.56Z"></path><path class="cls-29" d="M492.47,486.11l.11,.48c.1-.05,.13-.17,.1-.34-.05-.25-.29-.31-.29-.31,0,0,.06,.05,.09,.17Z"></path><path class="cls-29" d="M492.32,484.68l-.18-.81-.2-.11s.23,1.03,.24,1.09-.02,.15-.02,.15c0,0,.22,.02,.15-.31Z"></path></g><path class="cls-21" d="M491.08,481.05c-.79-.14-1.31,.35-1.14,1.09s.94,1.45,1.73,1.59,1.31-.35,1.14-1.09-.94-1.45-1.73-1.59Zm.2,.92c-.24-.04-.47-.25-.51-.47s.1-.36,.34-.32,.47,.25,.51,.47-.1,.36-.34,.32Z"></path><path class="cls-21" d="M491.59,483.69l.03,.15,.6,2.7s.11,.05,.2,.07c.21,.04,.31-.11,.25-.36s-.29-.31-.29-.31c0,0,.2-.1,.15-.33l-.09-.43-.26-.19s.22,.02,.15-.31c-.05-.23-.29-.52-.35-.8l-.04-.17h-.34Z"></path><path class="cls-25" d="M492.01,486.44c.07,.03,.14,.07,.21,.1l-.62-2.82h-.18l.6,2.72Z"></path><polygon class="cls-21" points="491.42 483.73 491.23 483.71 491.82 486.39 492.01 486.44 491.42 483.73"></polygon><path class="cls-30" d="M492.04,483.13l-1.03-.18s-.04-.02-.05-.04l-.02-.08s0-.03,.03-.03l1.03,.18s.04,.02,.05,.04l.02,.08s0,.03-.03,.03Z"></path></g><path class="cls-27" d="M489.84,481.09l.39,1.76c.08,.37,.47,.72,.86,.79l1.47,.25c.39,.07,.65-.18,.57-.54l-.39-1.76c-.14-.66-.84-1.29-1.55-1.41l-.33-.06c-.71-.12-1.16,.32-1.02,.97Zm1.68-.52c.2,.03,.39,.21,.43,.39v.04c.02,.07-.02,.11-.1,.1l-1.25-.21c-.07-.01-.15-.08-.16-.15v-.04c-.05-.18,.08-.3,.27-.27l.81,.14Z"></path><path class="cls-33" d="M489.56,481.04l.39,1.76c.08,.37,.47,.72,.86,.79l1.47,.25c.39,.07,.65-.18,.57-.54l-.39-1.76c-.14-.66-.84-1.29-1.55-1.41l-.33-.06c-.71-.12-1.16,.32-1.02,.97Zm1.68-.52c.2,.03,.39,.21,.43,.39v.04c.02,.07-.02,.11-.1,.1l-1.25-.21c-.07-.01-.15-.08-.16-.15v-.04c-.05-.18,.08-.3,.27-.27l.81,.14Z"></path><path class="cls-44" d="M491.09,482.22l.16,.72c.02,.1-.05,.17-.16,.16l-.52-.09c-.11-.02-.22-.12-.25-.22l-.16-.72c-.02-.1,.05-.17,.16-.16l.52,.09c.11,.02,.22,.12,.25,.22Z"></path><path class="cls-28" d="M490.96,482.22l.15,.68c.02,.1-.05,.16-.15,.15l-.49-.08c-.11-.02-.21-.11-.23-.21l-.15-.68c-.02-.1,.05-.16,.15-.15l.49,.08c.11,.02,.21,.11,.23,.21Z"></path><path class="cls-44" d="M492.2,482.41l.16,.72c.02,.1-.05,.17-.16,.16l-.52-.09c-.11-.02-.22-.12-.25-.22l-.16-.72c-.02-.1,.05-.17,.16-.16l.52,.09c.11,.02,.22,.12,.25,.22Z"></path><path class="cls-28" d="M492.08,482.41l.15,.68c.02,.1-.05,.16-.15,.15l-.49-.08c-.11-.02-.21-.11-.23-.21l-.15-.68c-.02-.1,.05-.16,.15-.15l.49,.08c.11,.02,.21,.11,.23,.21Z"></path></g><path class="cls-2" d="M492.87,480.36c.23-.4,.1-.89,.1-.89-.02-.13-.06-.26-.12-.4-.41-1-1.55-1.82-2.55-1.82s-1.49,.81-1.08,1.82c.16,.39,.43,.75,.76,1.05,0,0,.8,.68,1.68,.76"></path><path class="cls-15" d="M488.93,475.86s.78,1.55,.95,1.75,.98,.13,.93-.08-.78-1.65-.98-1.77-.92-.07-.9,.11Z"></path></g></g><g><path class="cls-36" d="M477.37,440.79s-6.39-2.31-6.96-3.13-3.31-8-1.33-9.12,9.74-2.03,12.51-1.19,4.11,1.66,4.97,2.31,.93,5.47,.46,5.65-10.55,1.68-10.69,1.69,1.04,3.78,1.04,3.78Z"></path><path class="cls-32" d="M480.85,441.94s-1.93-1.27-3.48-1.15c0,0-4.9-8.13-3.16-10.05s10.3-1.75,11.98-1.24c1.67,.51,5.11,5.82,5.63,6.87s-7.8,2.2-8.46,3.02c-.66,.82-2.51,2.56-2.51,2.56Z"></path><path class="cls-36" d="M494.95,437.13s-2.38-1.42-4.01-2.23c-1.46-.72-3.24-1.39-7.63-1.03-4.17,.34-5.64,1.69-6.36,5.21-.11,.54,.11,1.05,.43,1.7,0,0,1.43,.79,3.48,1.15l2.61-3.01,11.49-1.8Z"></path><path class="cls-32" d="M480.85,441.94s5.72-3.89,14.51-3.42l.64,.06c-.28-.59-.63-1.3-1.34-1.61-.43-.19-8.92-.85-13.8,2.32-.58,.38-1.23,.67-.91,1.64,.22,.67,.89,1.01,.89,1.01Z"></path><path class="cls-12" d="M481.6,427.35c-2.78-.84-10.53,.07-12.51,1.19-1.98,1.11,.75,8.3,1.33,9.12,.22,.31,1.3,.85,2.55,1.39,.03-.02,.04-.03,.04-.03,0,0-3.01-5.57-3.18-7.6-.17-2.04,1.19-2.72,4.07-3.1,1.86-.25,5.44-.48,8.77-.61-.33-.12-.69-.23-1.07-.35Z"></path><path class="cls-7" d="M476.95,439.08s-1.29-4.96,3.7-6.02c4.99-1.06,9.09,1.31,9.09,1.31,0,0-5.22-.36-7.45,.61-2.23,.97-3.82,1.86-5.33,4.09Z"></path></g></g></g><polygon class="cls-46" points="513.57 520.78 481.69 520.78 476.56 508.09 508.44 508.09 513.57 520.78"></polygon><polygon class="cls-46" points="545.45 520.78 513.57 520.78 508.44 508.09 540.32 508.09 545.45 520.78"></polygon><polygon class="cls-46" points="577.33 520.78 545.45 520.78 540.32 508.09 572.2 508.09 577.33 520.78"></polygon><polygon class="cls-46" points="641.08 520.78 577.33 520.78 572.2 508.09 635.96 508.09 641.08 520.78"></polygon><polygon class="cls-46" points="672.96 520.78 641.08 520.78 635.96 508.09 667.83 508.09 672.96 520.78"></polygon><polygon class="cls-46" points="704.84 520.78 672.96 520.78 667.83 508.09 699.71 508.09 704.84 520.78"></polygon><polygon class="cls-46" points="736.72 520.78 704.84 520.78 699.71 508.09 731.59 508.09 736.72 520.78"></polygon><polygon class="cls-46" points="768.6 520.78 736.72 520.78 731.59 508.09 763.47 508.09 768.6 520.78"></polygon><polygon class="cls-23" points="773.72 533.47 486.82 533.47 481.69 520.78 768.6 520.78 773.72 533.47"></polygon><polygon class="cls-23" points="770.36 525.15 483.46 525.15 511.89 595.53 798.8 595.53 770.36 525.15"></polygon><polygon class="cls-45" points="530.01 542.67 495.23 542.67 490.35 530.58 525.13 530.58 530.01 542.67"></polygon><text class="cls-53" transform="translate(562.48 463.03) scale(.93) skewX(22)"><tspan x="0" y="0">Ac</tspan><tspan class="cls-58" x="30.87" y="0">t</tspan><tspan x="40.87" y="0">ive</tspan></text><text class="cls-51" transform="translate(496.57 538.31) scale(.93) skewX(22)"><tspan x="0" y="0">Person ID</tspan></text><text class="cls-51" transform="translate(484.71 516.49) scale(.93) skewX(22)"><tspan x="0" y="0">Details</tspan></text><text class="cls-51" transform="translate(516.61 516.49) scale(.93) skewX(22)"><tspan x="0" y="0">P</tspan><tspan class="cls-39" x="2.46" y="0">r</tspan><tspan x="3.96" y="0">ofiles</tspan></text><text class="cls-51" transform="translate(548.32 516.49) scale(.93) skewX(22)"><tspan x="0" y="0">Payments</tspan></text><text class="cls-51" transform="translate(644.38 516.49) scale(.93) skewX(22)"><tspan x="0" y="0">Documents</tspan></text><text class="cls-51" transform="translate(675.98 516.49) scale(.93) skewX(22)"><tspan x="0" y="0">Docusign</tspan></text><text class="cls-51" transform="translate(708.06 516.49) scale(.93) skewX(22)"><tspan x="0" y="0">Inspections</tspan></text><text class="cls-51" transform="translate(740.14 516.49) scale(.93) skewX(22)"><tspan x="0" y="0">Invoices</tspan></text><text class="cls-51" transform="translate(580.22 516.49) scale(.93) skewX(22)"><tspan x="0" y="0">Add</tspan><tspan class="cls-39" x="7.98" y="0">r</tspan><tspan class="cls-54" x="9.48" y="0">ess &amp; Eme</tspan><tspan class="cls-39" x="29.01" y="0">r</tspan><tspan x="30.51" y="0">gancy Contact</tspan></text><polygon class="cls-46" points="564.79 542.67 530.01 542.67 525.13 530.58 559.9 530.58 564.79 542.67"></polygon><text class="cls-52" transform="translate(531.35 538.31) scale(.93) skewX(22)"><tspan x="0" y="0">5621</tspan></text><polygon class="cls-45" points="599.56 542.67 564.79 542.67 559.9 530.58 594.68 530.58 599.56 542.67"></polygon><text class="cls-51" transform="translate(566.13 538.31) scale(.93) skewX(22)"><tspan x="0" y="0">Pay F</tspan><tspan class="cls-39" x="10.22" y="0">r</tspan><tspan class="cls-54" x="11.71" y="0">equency</tspan></text><polygon class="cls-46" points="634.34 542.67 599.56 542.67 594.68 530.58 629.46 530.58 634.34 542.67"></polygon><text class="cls-52" transform="translate(600.9 538.31) scale(.93) skewX(22)"><tspan class="cls-40" x="0" y="0">W</tspan><tspan class="cls-54" x="3.88" y="0">eekly</tspan></text><polygon class="cls-45" points="669.12 542.67 634.34 542.67 629.46 530.58 664.23 530.58 669.12 542.67"></polygon><text class="cls-52" transform="translate(635.68 538.31) scale(.93) skewX(22)"><tspan x="0" y="0">Use</tspan><tspan class="cls-48" x="7.01" y="0">r</tspan><tspan x="8.65" y="0">name</tspan></text><polygon class="cls-46" points="703.89 542.67 669.12 542.67 664.23 530.58 699.01 530.58 703.89 542.67"></polygon><text class="cls-52" transform="translate(670.46 538.31) scale(.93) skewX(22)"><tspan class="cls-5" x="0" y="0">T</tspan><tspan x="1.94" y="0">riangle30</tspan></text><polygon class="cls-45" points="738.67 542.67 703.89 542.67 699.01 530.58 733.79 530.58 738.67 542.67"></polygon><text class="cls-52" transform="translate(705.23 538.31) scale(.93) skewX(22)"><tspan x="0" y="0">Status</tspan></text><polygon class="cls-46" points="773.45 542.67 738.67 542.67 733.79 530.58 768.56 530.58 773.45 542.67"></polygon><text class="cls-52" transform="translate(740.01 538.31) scale(.93) skewX(22)"><tspan x="0" y="0">Active</tspan></text><polygon class="cls-45" points="534.89 554.75 500.12 554.75 495.23 542.67 530.01 542.67 534.89 554.75"></polygon><text class="cls-51" transform="translate(501.46 550.39) scale(.93) skewX(22)"><tspan x="0" y="0">First Name</tspan></text><polygon class="cls-46" points="569.67 554.75 534.89 554.75 530.01 542.67 564.79 542.67 569.67 554.75"></polygon><text class="cls-52" transform="translate(536.23 550.39) scale(.93) skewX(22)"><tspan x="0" y="0">John</tspan></text><polygon class="cls-45" points="604.45 554.75 569.67 554.75 564.79 542.67 599.56 542.67 604.45 554.75"></polygon><text class="cls-51" transform="translate(571.01 550.39) scale(.93) skewX(22)"><tspan x="0" y="0">Gender</tspan></text><polygon class="cls-46" points="639.22 554.75 604.45 554.75 599.56 542.67 634.34 542.67 639.22 554.75"></polygon><text class="cls-52" transform="translate(605.79 550.39) scale(.93) skewX(22)"><tspan x="0" y="0">Male</tspan></text><polygon class="cls-45" points="674 554.75 639.22 554.75 634.34 542.67 669.12 542.67 674 554.75"></polygon><text class="cls-52" transform="translate(640.56 550.39) scale(.93) skewX(22)"><tspan x="0" y="0">Last Name</tspan></text><polygon class="cls-46" points="708.78 554.75 674 554.75 669.12 542.67 703.89 542.67 708.78 554.75"></polygon><text class="cls-52" transform="translate(675.34 550.39) scale(.93) skewX(22)"><tspan x="0" y="0">Smith</tspan></text><polygon class="cls-45" points="743.55 554.75 708.78 554.75 703.89 542.67 738.67 542.67 743.55 554.75"></polygon><text class="cls-52" transform="translate(710.12 550.39) scale(.93) skewX(22)"><tspan x="0" y="0">Nationality</tspan></text><polygon class="cls-46" points="778.33 554.75 743.55 554.75 738.67 542.67 773.45 542.67 778.33 554.75"></polygon><text class="cls-52" transform="translate(744.89 550.39) scale(.93) skewX(22)"><tspan x="0" y="0">United Kingdom</tspan></text><polygon class="cls-45" points="539.78 566.84 505 566.84 500.12 554.75 534.89 554.75 539.78 566.84"></polygon><text class="cls-51" transform="translate(506.34 562.48) scale(.93) skewX(22)"><tspan x="0" y="0">Job Title</tspan></text><polygon class="cls-46" points="574.55 566.84 539.78 566.84 534.89 554.75 569.67 554.75 574.55 566.84"></polygon><text class="cls-52" transform="translate(541.12 562.48) scale(.93) skewX(22)"><tspan x="0" y="0">Delivery Driver</tspan></text><polygon class="cls-45" points="609.33 566.84 574.55 566.84 569.67 554.75 604.45 554.75 609.33 566.84"></polygon><text class="cls-51" transform="translate(575.89 562.48) scale(.93) skewX(22)"><tspan x="0" y="0">Is Manager</tspan></text><polygon class="cls-46" points="644.11 566.84 609.33 566.84 604.45 554.75 639.22 554.75 644.11 566.84"></polygon><polygon class="cls-45" points="678.88 566.84 644.11 566.84 639.22 554.75 674 554.75 678.88 566.84"></polygon><text class="cls-52" transform="translate(645.45 562.48) scale(.93) skewX(22)"><tspan x="0" y="0">Date of Birth</tspan></text><polygon class="cls-46" points="713.66 566.84 678.88 566.84 674 554.75 708.78 554.75 713.66 566.84"></polygon><text class="cls-52" transform="translate(680.22 562.48) scale(.93) skewX(22)"><tspan x="0" y="0">14/05/1986</tspan></text><polygon class="cls-45" points="748.44 566.84 713.66 566.84 708.78 554.75 743.55 554.75 748.44 566.84"></polygon><text class="cls-52" transform="translate(715 562.48) scale(.93) skewX(22)"><tspan x="0" y="0">Start Date</tspan></text><polygon class="cls-46" points="783.21 566.84 748.44 566.84 743.55 554.75 778.33 554.75 783.21 566.84"></polygon><text class="cls-52" transform="translate(749.78 562.48) scale(.93) skewX(22)"><tspan x="0" y="0">23/07/2021</tspan></text><polygon class="cls-45" points="544.66 578.92 509.88 578.92 505 566.84 539.78 566.84 544.66 578.92"></polygon><text class="cls-51" transform="translate(511.22 574.57) scale(.93) skewX(22)"><tspan x="0" y="0">Homesite</tspan></text><polygon class="cls-46" points="579.44 578.92 544.66 578.92 539.78 566.84 574.55 566.84 579.44 578.92"></polygon><text class="cls-52" transform="translate(546 574.57) scale(.93) skewX(22)"><tspan x="0" y="0">Amazon</tspan></text><polygon class="cls-45" points="614.21 578.92 579.44 578.92 574.55 566.84 609.33 566.84 614.21 578.92"></polygon><text class="cls-51" transform="translate(580.78 574.57) scale(.93) skewX(22)"><tspan x="0" y="0">Day Rate</tspan></text><polygon class="cls-46" points="648.99 578.92 614.21 578.92 609.33 566.84 644.11 566.84 648.99 578.92"></polygon><text class="cls-52" transform="translate(615.55 574.57) scale(.93) skewX(22)"><tspan class="cls-42" x="0" y="0">V</tspan><tspan x="2.47" y="0">an Day Rate</tspan></text><polygon class="cls-45" points="683.77 578.92 648.99 578.92 644.11 566.84 678.88 566.84 683.77 578.92"></polygon><text class="cls-52" transform="translate(650.33 574.57) scale(.93) skewX(22)"><tspan x="0" y="0">Manager</tspan></text><polygon class="cls-46" points="718.54 578.92 683.77 578.92 678.88 566.84 713.66 566.84 718.54 578.92"></polygon><text class="cls-52" transform="translate(685.11 574.57) scale(.93) skewX(22)"><tspan x="0" y="0">Jim Jones</tspan></text><polygon class="cls-45" points="753.32 578.92 718.54 578.92 713.66 566.84 748.44 566.84 753.32 578.92"></polygon><text class="cls-52" transform="translate(719.88 574.57) scale(.93) skewX(22)"><tspan x="0" y="0">Pe</tspan><tspan class="cls-47" x="4.77" y="0">r</tspan><tspan class="cls-57" x="6.41" y="0">mission Role</tspan></text><polygon class="cls-46" points="788.1 578.92 753.32 578.92 748.44 566.84 783.21 566.84 788.1 578.92"></polygon><text class="cls-52" transform="translate(754.66 574.57) scale(.93) skewX(22)"><tspan x="0" y="0">-</tspan></text><polygon class="cls-45" points="549.54 591.01 514.77 591.01 509.88 578.92 544.66 578.92 549.54 591.01"></polygon><text class="cls-51" transform="translate(516.11 586.65) scale(.93) skewX(22)"><tspan x="0" y="0">Class</tspan></text><polygon class="cls-46" points="584.32 591.01 549.54 591.01 544.66 578.92 579.44 578.92 584.32 591.01"></polygon><text class="cls-52" transform="translate(550.88 586.65) scale(.93) skewX(22)"><tspan x="0" y="0">Full Time</tspan></text><polygon class="cls-45" points="619.1 591.01 584.32 591.01 579.44 578.92 614.21 578.92 619.1 591.01"></polygon><text class="cls-51" transform="translate(585.66 586.65) scale(.93) skewX(22)"><tspan x="0" y="0">Assigned </tspan><tspan class="cls-41" x="18.42" y="0">V</tspan><tspan x="20.89" y="0">ehicle</tspan></text><polygon class="cls-46" points="653.87 591.01 619.1 591.01 614.21 578.92 648.99 578.92 653.87 591.01"></polygon><text class="cls-52" transform="translate(620.44 586.65) scale(.93) skewX(22)"><tspan x="0" y="0">SB19FON</tspan></text><polygon class="cls-45" points="688.65 591.01 653.87 591.01 648.99 578.92 683.77 578.92 688.65 591.01"></polygon><text class="cls-52" transform="translate(655.21 586.65) scale(.93) skewX(22)"><tspan class="cls-49" x="0" y="0">T</tspan><tspan x="1.87" y="0">ype</tspan></text><polygon class="cls-46" points="723.43 591.01 688.65 591.01 683.77 578.92 718.54 578.92 723.43 591.01"></polygon><text class="cls-52" transform="translate(689.99 586.65) scale(.93) skewX(22)"><tspan x="0" y="0">Contractor</tspan></text><ellipse class="cls-31" cx="548.54" cy="455.28" rx="5" ry="7.47" transform="translate(-151.18 591.53) rotate(-50.71)"></ellipse><ellipse class="cls-38" cx="793.43" cy="610.16" rx="9.23" ry="13.79" transform="translate(-181.24 837.86) rotate(-50.71)"></ellipse><g><path class="cls-10" d="M796.48,606.6h-8.98c-.39,0-.34,.51,.07,.73l5.71,3.03c.17,.09,.35,.09,.45,0l3.27-3.03c.24-.22-.12-.73-.52-.73Z"></path><path class="cls-10" d="M793.28,610.98l-5.07-2.69c-.23-.12-.43,0-.34,.23l1.63,4.03c.26,.65,1,1.17,1.65,1.17h7.44c.65,0,.96-.53,.7-1.17l-1.63-4.03c-.09-.22-.39-.35-.52-.23l-2.9,2.69c-.21,.19-.58,.19-.95,0Z"></path></g><path class="cls-38" d="M619.31,558.02h-7.72c-1.53,0-2.28,1.24-1.66,2.78,.62,1.53,2.37,2.78,3.9,2.78h7.72c1.53,0,2.28-1.24,1.66-2.78s-2.37-2.78-3.9-2.78Z"></path><ellipse class="cls-10" cx="612.71" cy="560.8" rx="1.73" ry="2.58" transform="translate(-209.31 679.89) rotate(-50.71)"></ellipse></g><rect class="cls-22" x="653.53" y="646.43" width="354.55" height="35.73" rx="15.1" ry="15.1"></rect><polygon class="cls-7" points="511.57 646.43 840.01 646.43 817.05 589.49 479.27 566.84 511.57 646.43"></polygon><g><rect class="cls-17" x="546.14" y="633.57" width="30.89" height="12.86"></rect><rect class="cls-17" x="584.76" y="633.57" width="30.89" height="12.86"></rect><rect class="cls-17" x="623.37" y="633.57" width="30.9" height="12.86"></rect><rect class="cls-17" x="661.99" y="633.57" width="30.89" height="12.86"></rect><rect class="cls-17" x="700.61" y="633.57" width="30.89" height="12.86"></rect><rect class="cls-17" x="739.23" y="633.57" width="30.89" height="12.86"></rect><rect class="cls-17" x="777.85" y="633.57" width="30.9" height="12.86"></rect><rect class="cls-17" x="816.47" y="633.57" width="30.9" height="12.86"></rect><rect class="cls-17" x="854.72" y="633.57" width="30.9" height="12.86"></rect><rect class="cls-17" x="893.34" y="633.57" width="30.9" height="12.86"></rect><rect class="cls-17" x="931.95" y="633.57" width="30.9" height="12.86"></rect></g><path class="cls-26" d="M731.17,376.43H401.98l7.74,19.06h329.14l-7.68-19.06Z"></path><path class="cls-11" d="M731.17,376.43H401.98l41.81,103.01,308.14-51.51-20.76-51.51Z"></path><g class="cls-56"><rect class="cls-10" x="854.72" y="633.57" width="30.9" height="4.94"></rect><rect class="cls-10" x="777.85" y="633.57" width="30.9" height="4.94"></rect><rect class="cls-10" x="546.14" y="633.57" width="30.89" height="4.94"></rect><rect class="cls-10" x="893.34" y="633.57" width="30.9" height="4.94"></rect><rect class="cls-10" x="931.95" y="633.57" width="30.9" height="4.94"></rect><rect class="cls-10" x="816.47" y="633.57" width="30.9" height="4.94"></rect><rect class="cls-10" x="584.76" y="633.57" width="30.89" height="4.94"></rect><rect class="cls-10" x="623.37" y="633.57" width="30.9" height="4.94"></rect><rect class="cls-10" x="739.23" y="633.57" width="30.89" height="4.94"></rect><rect class="cls-10" x="700.61" y="633.57" width="30.89" height="4.94"></rect><rect class="cls-10" x="661.99" y="633.57" width="30.89" height="4.94"></rect></g></g><ellipse class="cls-55" cx="1275.35" cy="1039.82" rx="18.34" ry="247.07" transform="translate(230.98 2311.44) rotate(-89.8)"></ellipse><g><path class="cls-13" d="M1025.97,547.72c-27.01,9.73-54.42,18.65-82.16,25.98-13.88,3.71-27.85,7.03-41.89,9.77-14.05,2.78-28.22,5.1-42.44,6.45l-3.17,33.08c15.04,4.28,30.29,7.55,45.62,10.31,15.35,2.8,30.77,4.97,46.22,6.71,30.93,3.56,61.94,5.38,93.04,6.23l25.61-.35c35.36-.48,61.1-33.71,52.74-68.07h0c-7.95-32.67-43.09-50.65-74.24-37.97l-19.34,7.87Z"></path><path class="cls-55" d="M1025.97,547.72c-27.01,9.73-54.42,18.65-82.16,25.98-13.88,3.71-27.85,7.03-41.89,9.77-14.05,2.78-28.22,5.1-42.44,6.45l-3.17,33.08c15.04,4.28,30.29,7.55,45.62,10.31,15.35,2.8,30.77,4.97,46.22,6.71,30.93,3.56,61.94,5.38,93.04,6.23l25.61-.35c35.36-.48,61.1-33.71,52.74-68.07h0c-7.95-32.67-43.09-50.65-74.24-37.97l-19.34,7.87Z"></path><path class="cls-13" d="M1044.2,540.31c31.73-12.91,67.53,5.4,75.63,38.69h0s-110.28,36.73-262.11,29.34l1.76-18.41c14.21-1.36,28.38-3.68,42.44-6.45,14.05-2.74,28.01-6.05,41.89-9.77,27.74-7.33,55.15-16.25,82.16-25.98l18.23-7.42Z"></path><circle class="cls-13" cx="856.62" cy="598.07" r="38.12"></circle><path class="cls-13" d="M1371.61,841.17l1.87,177.2,21.68,14.17c5.79,3.79,3.23,12.79-3.69,12.95l-54.94,1.29c-10.47,.25-19.76-6.66-22.55-16.75l-38.2-203.92,95.84,15.06Z"></path><polygon class="cls-55" points="1295.25 930.09 1275.77 826.11 1371.61 841.17 1372.53 927.86 1295.25 930.09"></polygon><path class="cls-13" d="M1139.69,839.48l1.67,177.2-21.39,14.6c-5.72,3.9-2.97,12.85,3.95,12.87l54.95,.2c10.47,.04,19.63-7.05,22.21-17.2l34.12-204.64-95.52,16.96Z"></path><polygon class="cls-55" points="1217.81 926.86 1235.21 822.52 1139.69 839.48 1140.51 926.18 1217.81 926.86"></polygon><rect class="cls-13" x="1017.53" y="273.67" width="456.45" height="624.48" rx="53.3" ry="53.3" transform="translate(2489.4 1176.27) rotate(-179.8)"></rect><path class="cls-56" d="M1226.69,390.9c9.77,.52,17.28,8.86,16.76,18.63l-2.24,42.47c-.52,9.77-8.86,17.28-18.63,16.76-9.77-.52-17.28-8.86-16.76-18.63l2.24-42.47c.52-9.77,8.86-17.28,18.63-16.76Z"></path><path class="cls-56" d="M1128.06,387.8c9.77,.52,17.28,8.86,16.76,18.63l-2.24,42.47c-.52,9.77-8.86,17.28-18.63,16.76-9.77-.52-17.28-8.86-16.76-18.63l2.24-42.47c.52-9.77,8.86-17.28,18.63-16.76Z"></path><path class="cls-56" d="M1206.37,503.65c-13.17,7.93-23.57,17.13-52.3,2.57-1.6-.81-1.38,6.99-.3,8.95,4.57,8.4,34.21,21.35,53.44-2.7,1.53-1.91,.65-9.72-.84-8.82Z"></path><path class="cls-56" d="M1246.38,348.07c31.03,6.42,52.98,31.38,25.5,21.01-27.48-10.37-39.9-11.2-58.68-11.31-18.77-.12-8.31-18.29,33.18-9.7Z"></path><path class="cls-56" d="M1117.48,348.3c-23.86,7.24-38.86,31.86-18.15,20.98,20.7-10.89,30.42-12.12,45.2-12.9,14.79-.78,4.86-17.76-27.05-8.08Z"></path><path class="cls-12" d="M1381.76,328.53c-13.81,.32-224.6-1.68-363.3-3.04,.33-29.1,24.07-52.55,53.23-52.44l350.34,1.25c29.3,.1,52.97,23.94,52.86,53.24l-1.85,518.37c-.09,26.44-19.52,48.29-44.85,52.23,1.03-138.14,3.58-496.06,2.8-529.37-.97-41.37-28.55-40.72-49.24-40.23Z"></path><path class="cls-55" d="M1018.05,437.23c5.42,119.19,17.56,383.63,19.21,398.59,2.13,19.35,10.97,39.71,38.63,42.4,23.51,2.29,246.29,16.29,311.33,20.43l-317.48-.85c-29.3-.1-53.25-24.22-53.14-53.52l1.45-407.05Z"></path><path class="cls-13" d="M1365.51,780.53c10.59,26.68,20.38,53.79,28.59,81.28,4.16,13.75,7.92,27.61,11.1,41.56,3.23,13.96,6,28.04,7.81,42.21l33.16,2.11c3.8-15.17,6.58-30.52,8.85-45.93,2.31-15.43,3.98-30.91,5.22-46.41,2.57-31.03,3.39-62.08,3.25-93.19l-1.17-25.59c-1.61-35.33-35.65-59.99-69.72-50.53h0c-32.4,9-49.24,44.69-35.58,75.41l8.48,19.08Z"></path><path class="cls-55" d="M1357.51,762.55c-13.92-31.31,3.23-67.67,36.25-76.83h0s40.24,109.04,37.71,261.03l-18.46-1.17c-1.81-14.16-4.58-28.25-7.81-42.21-3.19-13.95-6.95-27.81-11.1-41.56-8.22-27.49-18.01-54.6-28.59-81.28l-8-17.98Z"></path><circle class="cls-13" cx="1421.25" cy="948.19" r="38.12"></circle><g><path class="cls-55" d="M1474.46,397.48h-137.82v-3.89c0-12.56-10.18-22.73-22.73-22.73h-61.35c-15.71,0-53.61,15.82-53.61,31.53l-4.18-3.08c-7.22-2.95-14.37-1.96-20.14,.44l-2.09-5.35c0-5.59-26.9-23.53-39.45-23.53h-77.6c-12.56,0-22.73,10.18-22.73,22.73v3.89h-14.54l-.04,11.18h14.58c0,45.88,37.19,83.08,83.08,83.08h7.51c28.32,0,51.28-22.96,51.28-51.28v-28.02c3.66-2.57,11.96-6.81,20.14-.19v28.21c0,28.32,22.96,51.28,51.28,51.28h7.51c45.88,0,83.08-37.19,83.08-83.08h137.82v-11.18Z"></path><path class="cls-43" d="M1257.33,370.59h49.54c9.46,0,17.14,7.68,17.14,17.14v13.12c0,43.84-35.59,79.44-79.44,79.44h-5.56c-25.22,0-45.69-20.47-45.69-45.69h0c0-35.33,28.68-64.01,64.01-64.01Z"></path><path class="cls-43" d="M1049.17,370.59h49.54c35.33,0,64.01,28.68,64.01,64.01h0c0,25.22-20.47,45.69-45.69,45.69h-7.09c-43,0-77.91-34.91-77.91-77.91v-14.65c0-9.46,7.68-17.14,17.14-17.14Z"></path><path class="cls-4" d="M1257.33,370.59h49.54c9.46,0,17.14,7.68,17.14,17.14v15.53c0,42.51-34.52,77.03-77.03,77.03h-7.97c-25.22,0-45.69-20.47-45.69-45.69h0c0-35.33,28.68-64.01,64.01-64.01Z"></path><path class="cls-4" d="M1153.5,403.88s25.19-25.98,48.31,0"></path><line class="cls-3" x1="1481.15" y1="397.22" x2="1324.01" y2="397.22"></line><line class="cls-3" x1="1007.71" y1="397.22" x2="1031.3" y2="397.22"></line><path class="cls-4" d="M1048.45,370.59h49.54c35.33,0,64.01,28.68,64.01,64.01h0c0,25.22-20.47,45.69-45.69,45.69h-4.86c-44.23,0-80.14-35.91-80.14-80.14v-12.42c0-9.46,7.68-17.14,17.14-17.14Z"></path></g></g></g></g></svg>