<svg xmlns="http://www.w3.org/2000/svg" xmlns:xlink="http://www.w3.org/1999/xlink" id="Layer_2" viewBox="0 0 1779.14 1011.91"><defs><style>.cls-1{fill:none;}.cls-2{opacity:.12;}.cls-2,.cls-3{fill:#3c3c3b;}.cls-4{font-family:Avenir-Black, Avenir;font-size:110.03px;}.cls-5{font-size:102.76px;}.cls-5,.cls-6{font-family:AkiraExpanded-SuperBold, 'AkiraExpanded SuperBold';}.cls-7{clip-path:url(#clippath);}.cls-8{opacity:.1;}.cls-9{font-size:28.41px;}.cls-9,.cls-10,.cls-11{fill:#706f6f;font-family:SourceSansRoman-Semibold, 'Source Sans Variable';font-variation-settings:'wght' 600;font-weight:700;}.cls-12{fill:#00b2e2;}.cls-13{fill:#006837;}.cls-14{fill:#009245;}.cls-15{fill:#e6e6e6;}.cls-16{fill:#ededed;}.cls-17,.cls-18{fill:#999;}.cls-19{fill:#00a1d9;}.cls-20{fill:#9fd6e2;}.cls-21{fill:#bc6687;}.cls-22{fill:#b3b3b3;}.cls-23{fill:#333;}.cls-24{fill:#ccc;}.cls-25{fill:#1a1a1a;}.cls-26{fill:#95c11f;}.cls-27{fill:gray;}.cls-28{fill:#566d72;}.cls-29,.cls-30{fill:#39b54a;}.cls-31{fill:#4d4d4d;}.cls-32{letter-spacing:.47em;}.cls-33{letter-spacing:.47em;}.cls-34{letter-spacing:.47em;}.cls-10{font-size:30.42px;}.cls-35{letter-spacing:.5em;}.cls-36{letter-spacing:.5em;}.cls-37{letter-spacing:.5em;}.cls-38{letter-spacing:.5em;}.cls-39{letter-spacing:.5em;}.cls-6{font-size:106.81px;}.cls-30{letter-spacing:0em;}.cls-40,.cls-3,.cls-41{opacity:.25;}.cls-42{opacity:.4;}.cls-43,.cls-44{opacity:.5;}.cls-45{letter-spacing:.48em;}.cls-46{letter-spacing:.48em;}.cls-47{letter-spacing:.48em;}.cls-48{letter-spacing:.47em;}.cls-49{letter-spacing:.47em;}.cls-50{letter-spacing:.47em;}.cls-11{font-size:29.52px;}.cls-44,.cls-41{fill:#fff;}.cls-18{opacity:.3;}</style><clipPath id="clippath"><path class="cls-1" d="M1329.57,563.28c-9.83-3.67-29.5,24.07-17.3,33.13,12.2,9.06,68.6,52.97,197.98,50.38,129.37-2.59,183.16-52.77,193.04-59.38,9.88-6.61-4.5-39.72-20.45-30.56s-60.81,48.25-171.6,49.66c-110.79,1.41-181.67-43.23-181.67-43.23Z"></path></clipPath></defs><g id="Layer_1-2"><g><rect class="cls-17" y="503.53" width="1779.14" height="508.38"></rect><rect class="cls-28" width="1779.14" height="508.38"></rect><ellipse class="cls-40" cx="1501.31" cy="829.42" rx="164.29" ry="10.77"></ellipse><g><g><g><path class="cls-8" d="M1244.87,609.67l.09-53.47-249.9,.38s-30.34-104.17-156.92-104.37c-126.58-.21-161.99,103.85-161.99,103.85l-78.53-.13c3.53,32.89,5.73,53.48,5.73,53.48-.02,9.34,7.62,17,16.96,17.01l607.55,.2c9.34,.02,17-7.62,17.01-16.96Z"></path><path class="cls-15" d="M835.75,467.32c-88.06-.14-159.57,71.13-159.71,159.2l318.91,.52c.14-88.06-71.13-159.57-159.2-159.71Z"></path><path class="cls-24" d="M1197.8,627.37l-577.49-.94c-9.34-.02-16.97-7.67-16.96-17.01,0,0-20.51-384.13-34.4-501.28-1.1-9.28,3.81-16.65,12.63-19.71,22.29-7.72,440.31-22.92,617.77-12.56,0,0,28.85,2.11,38.68,1.7,64-2.67,83.97,28.17,152.51,90.56,11.22,10.22,69.36,161.33,77.81,176.49,6.56,11.76,47.22,16.37,95.55,44.07,13.83,7.93,56.47,34.41,59.4,50.08,12.76,68.2,14.5,148.86,13.17,164.37-.74,8.7,.75,18.42-9.27,12.57-.02,11.09-63.83,4.33-74.91,4.32l-283.47,7.45-71.04-.12Z"></path><path class="cls-18" d="M1435.59,437.52s-92.85-12.89-136.7,30.26c-25.34,24.94-54.75,55.03-57.87,85.21l-40.77,1s-7.25-295.75-6.93-349.38c.08-13.54,11.02-24.09,24.56-24.48,33.43-.95,88.82-.48,120.74,8.05,13.08,3.49,41.87,10.48,51.91,26.11,11.09,17.26,47.27,107.09,50.48,126.67,2.19,13.36-5.4,96.56-5.4,96.56Z"></path><path class="cls-8" d="M1636.27,578.9l-.52-21.27-62.85-.89s-30.34-104.17-156.92-104.37c-126.58-.21-161.31,104.01-161.31,104.01l-.3,40.46c3.53,32.89,18.7,8.96,18.7,8.96-.02,9.34,3.21,20.92,12.55,20.94l289.2-6.78c9.34,.02,64.88-31.7,61.46-41.04Z"></path><path class="cls-15" d="M1413.77,467.48c-56.7-.09-106.54,29.43-134.89,73.97,0,0-17.4,31.07-17.43,52.21-.02,10.14,4.41,24.71,4.4,33.04l282.44,.03c.03-19.1,20.91-1.68,20.94-20.24,.05-30.72-20.81-64.6-20.81-64.6-28.2-44.64-77.94-74.32-134.65-74.41Z"></path><rect class="cls-15" x="585.92" y="569.87" width="141.12" height="56.62" rx="6.04" ry="6.04" transform="translate(.97 -1.07) rotate(.09)"></rect><path class="cls-15" d="M975.11,570.39l293.15-1.05c4.32,0,7.82,3.51,7.81,7.83l-.07,40.98c0,4.32-3.51,7.82-7.83,7.81l-293.15,1.05c-4.32,0-7.82-3.51-7.81-7.83l.07-40.98c0-4.32,3.51-7.82,7.83-7.81Z"></path><rect class="cls-15" x="1253.24" y="570.1" width="55.23" height="56.62" rx="6.04" ry="6.04" transform="translate(.97 -2.08) rotate(.09)"></rect><path class="cls-15" d="M1541.14,570.52l94.58,1.09c4.32,0,7.82,3.51,7.81,7.83l-7.68,34.73c0,4.32-3.51,7.82-7.83,7.81l-86.97,5.16c-4.32,0-7.82-3.51-7.81-7.83l.07-40.98c0-4.32,3.51-7.82,7.83-7.81Z"></path><path class="cls-17" d="M1394.99,342.08c-47.42-.08-171.62-4.86-171.62-4.86-12.07-.02-21.85-9.82-21.83-21.9,0,0,1.75-79.22,2.02-105.64,.13-12.07,9.88-23.03,21.9-21.83,28.24,2.83,86.43,6.79,113.12,15.67,11.46,3.81,25.66,13.18,36.43,24.51,12.6,13.26,39.02,74.75,41.88,92.21,1.95,11.91-9.82,21.85-21.9,21.83Z"></path><path class="cls-20" d="M1393.54,333.86c-46.1-.07-168.69-4.85-168.69-4.85-7.84-.01-14.18-6.37-14.16-14.21,0,0,1.75-78.41,2.02-104.56,.08-7.83,6.42-14.96,14.21-14.16,27.63,2.82,83.56,7.71,110.62,15.67,7.52,2.21,20.18,9.52,28.77,16.82,13.79,11.72,38.71,72.4,41.45,91.13,1.14,7.75-6.37,14.18-14.21,14.16Z"></path><path class="cls-17" d="M835.69,503.39c-68.15-.11-123.49,55.05-123.6,123.2l246.81,.4c.11-68.15-55.05-123.49-123.2-123.6Z"></path><path class="cls-31" d="M835.66,523.74c-56.91-.09-103.12,45.97-103.21,102.88l206.1,.33c.09-56.91-45.97-103.12-102.88-103.22Z"></path><path class="cls-17" d="M1413.71,503.53c-68.15-.11-123.49,55.05-123.6,123.2l246.81,.4c.11-68.15-55.05-123.49-123.2-123.6Z"></path><path class="cls-31" d="M1413.67,523.88c-56.91-.09-103.12,45.97-103.21,102.88l206.1,.33c.09-56.91-45.97-103.12-102.88-103.22Z"></path><path class="cls-8" d="M615.95,614.31l-30.06,3.07c0,4.96,4.01,8.99,8.97,9l81.18,.13,41.97,.07,258.17,.42,18.77,.03,304.49-.29,242.78,.39,6.07-.42,78.57-4.75c4.96,0,8.99-2.84,9-7.81l.57-2.57-1020.47,2.72Z"></path><circle class="cls-25" cx="1413.51" cy="626.93" r="93.96"></circle><circle class="cls-23" cx="1413.51" cy="626.93" r="88.28"></circle><circle class="cls-27" cx="1413.51" cy="626.93" r="45.86"></circle><circle class="cls-31" cx="1413.51" cy="626.93" r="28.73"></circle><circle class="cls-24" cx="1413.51" cy="626.93" r="24.91"></circle><path class="cls-40" d="M1415.83,651.73c12.65-1.17,22.57-11.8,22.59-24.76,0-1.42-.14-2.8-.37-4.15-1.79,13.09-10.43,23.98-22.22,28.91Z"></path><path class="cls-44" d="M1391.7,630.72c.02-13.24,8.51-24.46,20.32-28.62-13.04,.77-23.4,11.55-23.42,24.8,0,5.88,2.03,11.28,5.43,15.55-1.5-3.61-2.33-7.57-2.33-11.72Z"></path><path class="cls-43" d="M1413.63,553.14c36.33,.06,68.25,9.58,86.72,37.89-14.08-34.02-47.57-57.99-86.69-58.05-39.12-.06-72.68,23.79-86.88,57.77,18.56-28.25,50.52-37.67,86.85-37.61Z"></path><path class="cls-22" d="M629.6,361.53l-7.97-187.8c-.99-8.25,4.93-15.73,13.19-16.66l376.34-13.63c4.14-.47,8.05,.8,11.03,3.2,4.97,3.99,2.5,12.05-3.84,12.77l-376.35,14.05c-2.22,.25-3.82,2.27-3.55,4.49l6.5,175c.32,2.64,2.6,4.61,5.26,4.53l362.71-10.74c9.07-.27,10.35,13.36,1.33,14.41-.39,.05-.79,.08-1.19,.09l-368.07,13.46c-7.77,.28-14.47-5.44-15.4-13.16Z"></path><path class="cls-21" d="M592.84,422.14l10.12-.25c2.72-.07,4.98,7.43,5.56,18.42l4.13,78.94c.87,16.53-2.36,33.18-6.45,33.28l-10.55,.26c-2.77,.07-5.05-7.7-5.58-18.95l-3.7-78.95c-.77-16.41,2.44-32.66,6.48-32.75Z"></path><path class="cls-16" d="M1615.2,461.88l-1.9-22.3c-.51-5.99-5.32-12.97-11.8-17.14l-46.61-29.94c-9.76-6.27-18.76-3.51-18,5.5l1.98,23.25c.52,6.1,5.48,13.2,12.12,17.33l46.53,28.99c9.67,6.02,18.44,3.2,17.68-5.7Z"></path><path class="cls-44" d="M582.31,109.62l620.86-33.14c-1.37-.29-2.32-.49-3.81-.58-176.73-10.98-595.76,4.83-617.77,12.56-8.81,3.09-13.73,10.43-12.63,19.71,7.11,59.96,14.59,159.94,19.91,264.11l-6.55-262.65Z"></path><rect class="cls-27" x="1225.42" y="348.15" width="13.87" height="39.54" rx="4.75" ry="4.75" transform="translate(862.43 1599.68) rotate(-89.91)"></rect><circle class="cls-25" cx="835.49" cy="626.79" r="93.96"></circle><circle class="cls-23" cx="835.49" cy="626.79" r="88.28"></circle><circle class="cls-27" cx="835.49" cy="626.79" r="45.86"></circle><circle class="cls-31" cx="835.49" cy="626.79" r="28.73"></circle><circle class="cls-24" cx="835.49" cy="626.79" r="24.91"></circle><path class="cls-40" d="M837.82,651.59c12.65-1.17,22.57-11.8,22.59-24.76,0-1.42-.14-2.8-.37-4.15-1.79,13.09-10.43,23.98-22.22,28.91Z"></path><path class="cls-44" d="M813.69,630.58c.02-13.24,8.51-24.46,20.32-28.62-13.04,.77-23.4,11.55-23.42,24.8,0,5.88,2.03,11.28,5.43,15.55-1.5-3.61-2.33-7.57-2.33-11.72Z"></path><path class="cls-43" d="M835.61,553c36.33,.06,68.25,9.58,86.72,37.89-14.08-34.02-47.57-57.99-86.69-58.05-39.12-.06-72.68,23.79-86.88,57.77,18.56-28.25,50.52-37.67,86.85-37.61Z"></path></g><ellipse class="cls-2" cx="1110.79" cy="715.21" rx="497.24" ry="14.24"></ellipse></g><g><text class="cls-5" transform="translate(678.14 285.85) rotate(-1.82)"><tspan class="cls-13" x="0" y="0">A</tspan><tspan class="cls-14" x="62.89" y="0">B</tspan><tspan class="cls-30" x="118.59" y="0">C</tspan></text><text class="cls-9" transform="translate(679.01 313.34) rotate(-1.82) scale(1.22 1)"><tspan class="cls-49" x="0" y="0">L</tspan><tspan class="cls-35" x="27.58" y="0">OGI</tspan><tspan class="cls-45" x="115.19" y="0">S</tspan><tspan class="cls-37" x="144.31" y="0">TI</tspan><tspan class="cls-32" x="196.23" y="0">C</tspan><tspan class="cls-35" x="226.06" y="0">S</tspan></text></g></g><path class="cls-42" d="M1636.59,571.66c-.95-33.46-4.52-86.11-13.27-132.89-2.93-15.67-45.57-42.15-59.4-50.08-48.33-27.7-89-32.31-95.55-44.07-8.45-15.16-66.59-166.28-77.81-176.49-68.55-62.39-88.51-93.24-152.51-90.56-9.83,.41-38.68-1.7-38.68-1.7-2.32-.14-4.69-.27-7.09-.39-161.2-9.06-503.93,2.32-591.08,10.29-10.45,.94-17.24,1.84-19.6,2.66-8.28,2.87-13.11,9.53-12.77,18,.02,.57,.07,1.15,.14,1.74,.18,1.52,.36,3.08,.54,4.65,4.93,43.51,10.64,118.9,15.95,197.98,1.21,20.14,2.36,40.72,3.42,61.47l-.38-15.13c1.42,22.02,2.78,43.89,4.07,65.03-3.9,.81-6.96,16.68-6.2,32.71l3.7,78.95c.53,11.25,2.82,19.02,5.58,18.95l4.58-.11c.06,1.1,.12,2.18,.18,3.26h-2.78c.53,4.89,1.02,9.51,1.49,13.84h-7.11c-3.34-.02-6.05,2.68-6.05,6.02l-.07,41.59h0v2.95c-.01,3.34,2.69,6.05,6.03,6.05h2.95l12.15,.02,13.3,.02h0l91.78,.15h0l20.35,.04h9.09c-.05,32.38,16.27,60.95,41.15,77.89-103.68,2.61-169.13,6.44-169.13,10.7,0,7.87,222.62,14.24,497.24,14.24s497.24-6.38,497.24-14.24c0-3.89-54.4-7.41-142.58-9.98,25.28-16.8,41.97-45.51,42.02-78.14l34.74,.06,6.07-.42,13.32-.81,66.42-3.94c2.53,0,4.78-1.2,6.21-3.06,.09-.11,.18-.24,.27-.36l.02-.03c.71-.99,1.16-2.18,1.29-3.56,.03-.27,.04-.53,.04-.81l7.68-34.73c0-4.03-3.03-7.34-6.94-7.78Zm-525.8,129.31c-78.82,0-153.34,.53-219.56,1.46,23.14-17.08,38.17-44.52,38.22-75.49h9.09l20.35,.05h0l16.12,.02h0l19.93,.03h0l202.85,.33,71.04,.12,27.82-.73h5.72l17.17,.03c-.05,31.26,15.18,58.95,38.63,76.07-72.86-1.2-157.33-1.89-247.39-1.89Z"></path><g><g><g><path class="cls-8" d="M1066.5,656.91l.09-55.58-259.73,.39s-31.54-108.26-163.09-108.48c-131.56-.21-168.36,107.94-168.36,107.94l-81.62-.13c3.67,34.18,5.96,55.59,5.96,55.59-.02,9.71,7.92,17.67,17.63,17.68l631.45,.21c9.71,.02,17.67-7.92,17.68-17.63Z"></path><path class="cls-15" d="M641.28,508.96c-91.53-.15-165.85,73.93-166,165.46l331.46,.54c.15-91.53-73.93-165.85-165.46-166Z"></path><path class="cls-24" d="M1017.58,675.3l-600.21-.97c-9.71-.02-17.64-7.97-17.63-17.68,0,0-21.32-399.24-35.76-521-1.14-9.64,3.96-17.31,13.13-20.49,23.16-8.02,457.63-23.82,642.08-13.05,0,0,29.98,2.19,40.2,1.76,66.52-2.78,87.27,29.28,158.51,94.13,11.67,10.62,72.09,167.68,80.87,183.44,6.81,12.22,49.08,17.02,99.31,45.8,14.38,8.24,58.69,35.76,61.74,52.05,13.26,70.88,15.07,154.72,13.69,170.83-.77,9.04,.78,19.15-9.64,13.07-.02,11.52-66.34,4.5-77.86,4.49l-294.62,7.75-73.83-.12Z"></path><path class="cls-18" d="M1264.72,477.98s-96.51-13.4-142.08,31.45c-26.34,25.92-56.9,57.19-60.15,88.56l-42.38,1.04s-7.54-307.39-7.21-363.13c.08-14.07,11.45-25.04,25.52-25.44,34.75-.99,92.31-.5,125.49,8.37,13.6,3.63,43.52,10.89,53.96,27.14,11.52,17.94,49.13,111.31,52.47,131.66,2.27,13.89-5.62,100.36-5.62,100.36Z"></path><path class="cls-8" d="M1473.29,624.92l-.54-22.11-65.33-.93s-31.54-108.26-163.09-108.48c-131.56-.21-167.65,108.1-167.65,108.1l-.31,42.05c3.67,34.18,19.44,9.31,19.44,9.31-.02,9.71,3.33,21.75,13.04,21.76l300.57-7.05c9.71,.02,67.44-32.95,63.88-42.66Z"></path><path class="cls-15" d="M1242.04,509.12c-58.94-.1-110.74,30.58-140.19,76.88,0,0-18.08,32.29-18.12,54.26-.02,10.54,4.58,25.68,4.57,34.34l293.55,.03c.03-19.85,21.73-1.75,21.77-21.03,.05-31.93-21.63-67.14-21.63-67.14-29.31-46.39-81.01-77.24-139.94-77.34Z"></path><rect class="cls-15" x="381.62" y="615.53" width="146.68" height="58.85" rx="6.28" ry="6.28" transform="translate(1.05 -.74) rotate(.09)"></rect><path class="cls-15" d="M786.12,616.07l304.69-1.09c4.49,0,8.12,3.65,8.12,8.14l-.07,42.59c0,4.49-3.65,8.12-8.14,8.12l-304.69,1.09c-4.49,0-8.12-3.65-8.12-8.14l.07-42.59c0-4.49,3.65-8.12,8.14-8.12Z"></path><rect class="cls-15" x="1075.19" y="615.77" width="57.4" height="58.85" rx="6.28" ry="6.28" transform="translate(1.05 -1.79) rotate(.09)"></rect><path class="cls-15" d="M1374.42,616.21l98.3,1.13c4.49,0,8.12,3.65,8.12,8.14l-7.98,36.09c0,4.49-3.65,8.12-8.14,8.12l-90.4,5.37c-4.49,0-8.12-3.65-8.12-8.14l.07-42.59c0-4.49,3.65-8.12,8.14-8.12Z"></path><path class="cls-17" d="M1222.53,378.78c-49.28-.08-178.38-5.05-178.38-5.05-12.55-.02-22.71-10.21-22.68-22.76,0,0,1.82-82.34,2.1-109.79,.13-12.55,10.27-23.93,22.76-22.68,29.36,2.94,89.84,7.06,117.57,16.29,11.91,3.96,26.67,13.7,37.86,25.47,13.1,13.78,40.55,77.69,43.53,95.84,2.03,12.38-10.21,22.71-22.76,22.68Z"></path><path class="cls-20" d="M1221.02,370.24c-47.91-.08-175.33-5.04-175.33-5.04-8.14-.01-14.73-6.63-14.72-14.77,0,0,1.81-81.5,2.1-108.67,.09-8.14,6.67-15.55,14.77-14.72,28.71,2.94,86.85,8.01,114.97,16.29,7.81,2.3,20.97,9.9,29.9,17.48,14.34,12.18,40.23,75.25,43.08,94.71,1.18,8.06-6.63,14.73-14.77,14.72Z"></path><path class="cls-17" d="M641.22,546.44c-70.83-.12-128.35,57.21-128.47,128.05l256.51,.42c.12-70.83-57.21-128.35-128.05-128.47Z"></path><path class="cls-31" d="M641.19,567.59c-59.15-.1-107.18,47.78-107.28,106.93l214.2,.35c.1-59.15-47.78-107.18-106.93-107.28Z"></path><path class="cls-17" d="M1241.98,546.59c-70.83-.12-128.35,57.21-128.47,128.05l256.51,.42c.12-70.83-57.21-128.35-128.05-128.47Z"></path><path class="cls-31" d="M1241.94,567.74c-59.15-.1-107.18,47.78-107.28,106.93l214.2,.35c.1-59.15-47.78-107.18-106.93-107.28Z"></path><path class="cls-8" d="M412.83,661.73l-31.24,3.19c0,5.16,4.17,9.35,9.33,9.36l84.37,.14,43.62,.07,268.33,.44,19.51,.03,316.47-.3,252.33,.41,6.31-.43,81.66-4.94c5.16,0,9.35-2.95,9.36-8.11l.59-2.67-1060.62,2.82Z"></path><circle class="cls-25" cx="1241.77" cy="674.84" r="97.66"></circle><circle class="cls-23" cx="1241.77" cy="674.84" r="91.75"></circle><circle class="cls-27" cx="1241.77" cy="674.84" r="47.67"></circle><circle class="cls-31" cx="1241.77" cy="674.84" r="29.86"></circle><circle class="cls-24" cx="1241.77" cy="674.84" r="25.89"></circle><path class="cls-40" d="M1244.19,700.62c13.15-1.22,23.45-12.26,23.48-25.73,0-1.47-.15-2.91-.38-4.31-1.86,13.6-10.84,24.93-23.1,30.04Z"></path><path class="cls-44" d="M1219.11,678.78c.02-13.76,8.84-25.42,21.12-29.75-13.56,.8-24.32,12.01-24.35,25.77,0,6.11,2.11,11.72,5.65,16.16-1.56-3.75-2.42-7.86-2.42-12.18Z"></path><path class="cls-43" d="M1241.89,598.15c37.75,.06,70.94,9.96,90.13,39.38-14.64-35.36-49.44-60.27-90.1-60.34-40.66-.07-75.54,24.73-90.3,60.05,19.29-29.36,52.51-39.15,90.26-39.09Z"></path><path class="cls-22" d="M427.02,399l-8.28-195.19c-1.03-8.58,5.12-16.35,13.7-17.31l391.15-14.16c4.31-.48,8.36,.83,11.46,3.32,5.17,4.15,2.6,12.52-3.99,13.27l-391.15,14.6c-2.31,.26-3.97,2.36-3.69,4.67l6.76,181.89c.33,2.75,2.71,4.79,5.47,4.71l376.98-11.16c9.43-.28,10.76,13.89,1.38,14.97-.41,.05-.82,.08-1.24,.09l-382.55,13.99c-8.08,.3-15.04-5.65-16.01-13.68Z"></path><path class="cls-21" d="M388.81,461.99l10.51-.26c2.83-.07,5.18,7.73,5.77,19.14l4.3,82.05c.9,17.18-2.46,34.49-6.71,34.59l-10.96,.27c-2.88,.07-5.25-8-5.8-19.69l-3.85-82.06c-.8-17.05,2.54-33.94,6.73-34.04Z"></path><path class="cls-16" d="M1451.4,503.3l-1.98-23.18c-.53-6.23-5.53-13.48-12.27-17.81l-48.44-31.11c-10.14-6.51-19.5-3.65-18.7,5.72l2.06,24.16c.54,6.34,5.7,13.72,12.59,18.02l48.36,30.13c10.05,6.26,19.17,3.32,18.38-5.92Z"></path><path class="cls-44" d="M377.87,137.18l645.28-34.45c-1.43-.3-2.41-.51-3.96-.6-183.68-11.41-619.2,5.02-642.08,13.05-9.16,3.22-14.27,10.84-13.13,20.49,7.39,62.32,15.16,166.24,20.69,274.5l-6.81-272.99Z"></path><rect class="cls-27" x="1046.28" y="385.09" width="14.42" height="41.1" rx="4.94" ry="4.94" transform="translate(646.13 1458.47) rotate(-89.91)"></rect><circle class="cls-25" cx="641.01" cy="674.7" r="97.66"></circle><circle class="cls-23" cx="641.01" cy="674.7" r="91.75"></circle><circle class="cls-27" cx="641.01" cy="674.7" r="47.67"></circle><circle class="cls-31" cx="641.01" cy="674.7" r="29.86"></circle><circle class="cls-24" cx="641.01" cy="674.7" r="25.89"></circle><path class="cls-40" d="M643.43,700.47c13.15-1.22,23.45-12.26,23.48-25.73,0-1.47-.15-2.91-.38-4.31-1.86,13.6-10.84,24.93-23.1,30.04Z"></path><path class="cls-44" d="M618.35,678.63c.02-13.76,8.84-25.42,21.12-29.75-13.56,.8-24.32,12.01-24.35,25.77,0,6.11,2.11,11.72,5.65,16.16-1.56-3.75-2.42-7.86-2.42-12.18Z"></path><path class="cls-43" d="M641.14,598c37.75,.06,70.94,9.96,90.13,39.38-14.64-35.36-49.44-60.27-90.1-60.34-40.66-.07-75.54,24.73-90.3,60.05,19.29-29.36,52.51-39.15,90.26-39.09Z"></path></g><ellipse class="cls-2" cx="927.14" cy="766.6" rx="516.8" ry="14.8"></ellipse></g><g><text class="cls-6" transform="translate(477.47 320.34) rotate(-1.82)"><tspan class="cls-13" x="0" y="0">A</tspan><tspan class="cls-14" x="65.37" y="0">B</tspan><tspan class="cls-29" x="123.25" y="0">C</tspan></text><text class="cls-11" transform="translate(478.38 348.92) rotate(-1.82) scale(1.22 1)"><tspan class="cls-50" x="0" y="0">L</tspan><tspan class="cls-38" x="28.67" y="0">OGI</tspan><tspan class="cls-46" x="119.72" y="0">S</tspan><tspan class="cls-38" x="149.98" y="0">TI</tspan><tspan class="cls-34" x="203.95" y="0">C</tspan><tspan class="cls-38" x="234.95" y="0">S</tspan></text></g></g><path class="cls-3" d="M1473.63,617.4c-.99-34.77-4.69-89.5-13.79-138.12-3.05-16.29-47.36-43.81-61.74-52.05-50.24-28.78-92.5-33.58-99.31-45.8-8.78-15.76-69.21-172.82-80.87-183.44-71.24-64.84-92-96.9-158.51-94.13-10.22,.43-40.2-1.76-40.2-1.76-2.42-.14-4.9-.28-7.4-.41-167.53-9.41-523.63,2.41-614.26,10.7-10.88,.98-17.96,1.92-20.41,2.77-8.6,2.98-13.62,9.9-13.27,18.7,.02,.59,.07,1.2,.14,1.81,.19,1.58,.38,3.21,.56,4.84,5.13,45.23,11.06,123.57,16.58,205.77,1.26,20.93,2.45,42.32,3.55,63.89l-.39-15.72c1.47,22.88,2.89,45.62,4.24,67.59-4.06,.85-7.23,17.34-6.45,34l3.85,82.06c.55,11.69,2.93,19.76,5.8,19.69l4.76-.12c.06,1.14,.13,2.27,.19,3.38h-2.89c.55,5.09,1.06,9.89,1.54,14.38h-7.38c-3.47-.02-6.28,2.79-6.29,6.26l-.07,43.23h0v3.06c-.01,3.47,2.8,6.28,6.26,6.29l55.41,.09,38.04,.06,31.46,.05h0l30.6,.06c-.05,33.64,16.91,63.33,42.77,80.94-107.76,2.71-175.78,6.69-175.78,11.12,0,8.18,231.38,14.8,516.8,14.8s516.8-6.63,516.8-14.8c0-4.04-56.54-7.7-148.19-10.38,26.27-17.46,43.62-47.3,43.67-81.22l36.11,.06,6.31-.43,13.87-.84,69-4.1c2.63,0,4.96-1.25,6.45-3.18,.1-.12,.19-.25,.28-.37l.02-.03c.73-1.03,1.21-2.27,1.35-3.7,.03-.28,.04-.55,.04-.84l7.98-36.09c0-4.18-3.15-7.63-7.21-8.09Zm-546.49,134.39c-81.92,0-159.38,.55-228.2,1.52,24.05-17.75,39.68-46.27,39.73-78.46l9.44,.02,21.16,.03h0l37.47,.05h0l210.83,.34,73.83,.12,28.91-.76h5.95l17.84,.03c-.05,32.48,15.78,61.27,40.15,79.07-75.72-1.25-163.51-1.96-257.12-1.96Z"></path><g><g><g><path class="cls-8" d="M925.54,710.17l.09-57.26-267.58,.4s-32.49-111.54-168.02-111.76c-135.53-.22-173.45,111.2-173.45,111.2l-84.08-.14c3.78,35.22,6.14,57.27,6.14,57.27-.02,10,8.15,18.2,18.16,18.22l650.52,.22c10,.02,18.2-8.15,18.22-18.16Z"></path><path class="cls-15" d="M487.48,557.75c-94.29-.15-170.86,76.16-171.01,170.46l341.47,.55c.15-94.29-76.16-170.86-170.46-171.01Z"></path><path class="cls-24" d="M875.14,729.11l-618.34-1c-10-.02-18.17-8.21-18.16-18.22,0,0-21.96-411.3-36.84-536.74-1.18-9.93,4.08-17.83,13.53-21.11,23.86-8.26,471.46-24.54,661.47-13.45,0,0,30.89,2.26,41.42,1.82,68.53-2.86,89.91,30.17,163.3,96.97,12.02,10.94,74.27,172.75,83.32,188.98,7.02,12.59,50.56,17.53,102.31,47.19,14.81,8.49,60.47,36.84,63.61,53.62,13.66,73.02,15.52,159.39,14.1,175.99-.8,9.32,.81,19.73-9.93,13.46-.02,11.87-68.34,4.64-80.21,4.62l-303.52,7.98-76.06-.12Z"></path><path class="cls-18" d="M1129.75,525.83s-99.42-13.8-146.37,32.4c-27.14,26.71-58.62,58.92-61.97,91.24l-43.66,1.07s-7.77-316.67-7.43-374.1c.09-14.5,11.8-25.79,26.29-26.21,35.8-1.02,95.1-.51,129.28,8.62,14.01,3.74,44.83,11.22,55.59,27.96,11.87,18.48,50.62,114.67,54.05,135.63,2.34,14.31-5.79,103.39-5.79,103.39Z"></path><path class="cls-8" d="M1344.62,677.21l-.56-22.78-67.3-.95s-32.49-111.54-168.02-111.76c-135.53-.22-172.72,111.37-172.72,111.37l-.32,43.32c3.78,35.22,20.02,9.59,20.02,9.59-.02,10,3.43,22.4,13.44,22.42l309.65-7.26c10,.02,69.47-33.94,65.81-43.95Z"></path><path class="cls-15" d="M1106.38,557.91c-60.72-.1-114.08,31.51-144.43,79.2,0,0-18.63,33.26-18.67,55.9-.02,10.86,4.72,26.46,4.71,35.37l302.42,.03c.03-20.45,22.39-1.8,22.42-21.67,.05-32.89-22.28-69.17-22.28-69.17-30.19-47.79-83.46-79.57-144.17-79.67Z"></path><rect class="cls-15" x="219.97" y="667.55" width="151.11" height="60.62" rx="6.47" ry="6.47" transform="translate(1.13 -.48) rotate(.09)"></rect><path class="cls-15" d="M636.69,668.1l313.89-1.13c4.62,0,8.37,3.76,8.36,8.39l-.07,43.88c0,4.62-3.76,8.37-8.39,8.36l-313.89,1.13c-4.62,0-8.37-3.76-8.36-8.39l.07-43.88c0-4.62,3.76-8.37,8.39-8.36Z"></path><rect class="cls-15" x="934.49" y="667.79" width="59.14" height="60.62" rx="6.47" ry="6.47" transform="translate(1.14 -1.56) rotate(.09)"></rect><path class="cls-15" d="M1242.76,668.24l101.27,1.17c4.62,0,8.37,3.76,8.36,8.39l-8.22,37.18c0,4.62-3.76,8.37-8.39,8.36l-93.13,5.53c-4.62,0-8.37-3.76-8.36-8.39l.07-43.88c0-4.62,3.76-8.37,8.39-8.36Z"></path><path class="cls-17" d="M1086.28,423.64c-50.77-.08-183.76-5.2-183.76-5.2-12.93-.02-23.39-10.52-23.37-23.45,0,0,1.87-84.83,2.16-113.11,.13-12.93,10.58-24.66,23.45-23.37,30.24,3.02,92.55,7.27,121.12,16.78,12.27,4.08,27.48,14.11,39.01,26.24,13.49,14.19,41.78,80.04,44.84,98.73,2.09,12.76-10.52,23.39-23.45,23.37Z"></path><path class="cls-20" d="M1084.72,414.84c-49.36-.08-180.62-5.19-180.62-5.19-8.39-.01-15.18-6.83-15.17-15.22,0,0,1.87-83.96,2.16-111.95,.09-8.39,6.87-16.02,15.22-15.17,29.58,3.02,89.47,8.25,118.44,16.78,8.05,2.37,21.6,10.19,30.8,18.01,14.77,12.55,41.45,77.52,44.38,97.57,1.22,8.3-6.83,15.18-15.22,15.17Z"></path><path class="cls-17" d="M487.41,596.36c-72.97-.12-132.23,58.94-132.35,131.92l264.26,.43c.12-72.97-58.94-132.23-131.92-132.35Z"></path><path class="cls-31" d="M487.38,618.16c-60.94-.1-110.42,49.22-110.52,110.16l220.67,.36c.1-60.94-49.22-110.42-110.16-110.52Z"></path><path class="cls-17" d="M1106.32,596.51c-72.97-.12-132.23,58.94-132.35,131.92l264.26,.43c.12-72.97-58.94-132.23-131.92-132.35Z"></path><path class="cls-31" d="M1106.28,618.31c-60.94-.1-110.42,49.22-110.52,110.16l220.67,.36c.1-60.94-49.22-110.42-110.16-110.52Z"></path><path class="cls-8" d="M252.12,715.14l-32.19,3.29c0,5.32,4.29,9.63,9.61,9.64l86.92,.14,44.94,.07,276.44,.45,20.09,.03,326.03-.31,259.95,.42,6.5-.45,84.13-5.08c5.32,0,9.63-3.04,9.64-8.36l.61-2.75-1092.66,2.91Z"></path><circle class="cls-25" cx="1106.1" cy="728.65" r="100.61"></circle><circle class="cls-23" cx="1106.1" cy="728.65" r="94.53"></circle><circle class="cls-27" cx="1106.1" cy="728.65" r="49.11"></circle><circle class="cls-31" cx="1106.1" cy="728.65" r="30.77"></circle><circle class="cls-24" cx="1106.1" cy="728.65" r="26.67"></circle><path class="cls-40" d="M1108.59,755.2c13.54-1.25,24.16-12.63,24.18-26.51,0-1.52-.15-3-.39-4.44-1.92,14.01-11.17,25.68-23.79,30.95Z"></path><path class="cls-44" d="M1082.75,732.7c.02-14.17,9.11-26.19,21.75-30.65-13.97,.83-25.06,12.37-25.08,26.55-.01,6.3,2.18,12.08,5.82,16.65-1.61-3.86-2.5-8.1-2.49-12.55Z"></path><path class="cls-43" d="M1106.23,649.63c38.89,.06,73.08,10.26,92.86,40.57-15.08-36.43-50.94-62.09-92.82-62.16-41.89-.07-77.83,25.48-93.02,61.86,19.88-30.25,54.09-40.33,92.99-40.27Z"></path><path class="cls-22" d="M266.74,444.47l-8.53-201.08c-1.06-8.84,5.27-16.84,14.12-17.84l402.97-14.59c4.44-.5,8.62,.86,11.81,3.42,5.32,4.27,2.67,12.9-4.11,13.67l-402.97,15.04c-2.38,.27-4.09,2.43-3.8,4.81l6.96,187.38c.34,2.83,2.79,4.93,5.64,4.85l388.37-11.5c9.72-.29,11.08,14.3,1.43,15.43-.42,.05-.85,.08-1.28,.1l-394.11,14.42c-8.32,.3-15.49-5.82-16.49-14.09Z"></path><path class="cls-21" d="M227.38,509.36l10.83-.26c2.91-.07,5.33,7.96,5.95,19.72l4.43,84.53c.93,17.7-2.53,35.53-6.91,35.64l-11.29,.28c-2.96,.07-5.41-8.24-5.98-20.29l-3.97-84.54c-.82-17.57,2.62-34.97,6.94-35.07Z"></path><path class="cls-16" d="M1322.07,551.92l-2.03-23.88c-.55-6.42-5.69-13.89-12.64-18.35l-49.91-32.05c-10.45-6.71-20.09-3.76-19.27,5.89l2.12,24.89c.56,6.53,5.87,14.14,12.97,18.56l49.82,31.04c10.35,6.45,19.75,3.42,18.93-6.1Z"></path><path class="cls-44" d="M216.11,174.74l664.77-35.49c-1.47-.31-2.48-.52-4.08-.62-189.23-11.76-637.9,5.18-661.47,13.45-9.44,3.31-14.71,11.17-13.53,21.11,7.61,64.2,15.62,171.26,21.32,282.79l-7.02-281.23Z"></path><rect class="cls-27" x="904.71" y="430.14" width="14.85" height="42.34" rx="5.09" ry="5.09" transform="translate(459.34 1362.71) rotate(-89.91)"></rect><circle class="cls-25" cx="487.2" cy="728.49" r="100.61"></circle><circle class="cls-23" cx="487.2" cy="728.49" r="94.53"></circle><circle class="cls-27" cx="487.2" cy="728.49" r="49.11"></circle><circle class="cls-31" cx="487.2" cy="728.49" r="30.77"></circle><circle class="cls-24" cx="487.2" cy="728.49" r="26.67"></circle><path class="cls-40" d="M489.69,755.04c13.54-1.25,24.16-12.63,24.18-26.51,0-1.52-.15-3-.39-4.44-1.92,14.01-11.17,25.68-23.79,30.95Z"></path><path class="cls-44" d="M463.85,732.55c.02-14.17,9.11-26.19,21.75-30.65-13.97,.83-25.06,12.37-25.08,26.55-.01,6.3,2.18,12.08,5.82,16.65-1.61-3.86-2.5-8.1-2.49-12.55Z"></path><path class="cls-43" d="M487.33,649.48c38.89,.06,73.08,10.26,92.86,40.57-15.08-36.43-50.94-62.09-92.82-62.16-41.89-.07-77.83,25.48-93.02,61.86,19.88-30.25,54.09-40.33,92.99-40.27Z"></path></g><ellipse class="cls-2" cx="781.97" cy="823.17" rx="532.41" ry="15.25"></ellipse></g><g><text class="cls-4" transform="translate(318.71 363.44) rotate(-1.82)"><tspan class="cls-13" x="0" y="0">A</tspan><tspan class="cls-14" x="81.53" y="0">B</tspan><tspan class="cls-29" x="152.83" y="0">C</tspan></text><text class="cls-10" transform="translate(319.65 392.88) rotate(-1.82) scale(1.22 1)"><tspan class="cls-48" x="0" y="0">L</tspan><tspan class="cls-39" x="29.53" y="0">OGI</tspan><tspan class="cls-47" x="123.34" y="0">S</tspan><tspan class="cls-36" x="154.51" y="0">TI</tspan><tspan class="cls-33" x="210.11" y="0">C</tspan><tspan class="cls-36" x="242.05" y="0">S</tspan></text></g><path class="cls-40" d="M1348.8,670.91c-3.09-1.84-3.83-1.45-3.83-1.45l-.7-18.45-60.95-1.58c-3.74-8.35-12.12-14.18-21.87-14.18-13.23,0-23.95,10.72-23.95,23.95s10.72,23.95,23.95,23.95c6.89,0,13.09-2.91,17.46-7.57,15.2,1.63,54.93,5.6,72.93,4.74l.56-2.53s.06-4.71-3.6-6.89Z"></path></g><g><path class="cls-19" d="M1359.2,616.9c-14.83,5-29.88,9.56-45.08,13.25-7.61,1.87-15.26,3.52-22.95,4.86-7.69,1.36-15.45,2.47-23.21,3.05l-2.1,18c8.15,2.5,16.43,4.46,24.76,6.13,8.34,1.7,16.72,3.05,25.13,4.17,16.83,2.28,33.72,3.62,50.66,4.43l13.97,.09c19.29,.13,33.69-17.7,29.51-36.53h0c-3.97-17.9-22.93-28.09-40.06-21.53l-10.63,4.07Z"></path><path class="cls-40" d="M1369.22,613.05c17.45-6.69,36.76,3.69,40.81,21.93h0s-60.54,18.8-143.24,13.08l1.17-10.02c7.77-.58,15.52-1.69,23.21-3.05,7.69-1.34,15.34-2.99,22.95-4.86,15.21-3.69,30.25-8.25,45.08-13.25l10.02-3.84Z"></path><circle class="cls-19" cx="1266.3" cy="642.47" r="20.79"></circle><path class="cls-19" d="M1569.28,717.48l-1.26,96.64,11.64,8.01c3.11,2.14,1.6,7.01-2.18,7.01h-29.97c-5.71,0-10.69-3.88-12.08-9.42l-18.21-111.67,52.06,9.44Z"></path><path class="cls-19" d="M1440.15,717.75l.86,96.64-11.62,8.03c-3.11,2.15-1.58,7.02,2.19,7.01l28.34-.05c6.43-.01,11.8-4.92,12.38-11.32l19.89-109.83-52.04,9.53Z"></path><polygon class="cls-40" points="1526.51 764.98 1517.22 708.04 1569.28 717.48 1568.67 764.76 1526.51 764.98"></polygon><polygon class="cls-40" points="1492.2 708.22 1481.92 764.96 1440.57 764.79 1440.15 717.75 1492.2 708.22"></polygon><path class="cls-19" d="M1431.13,410.47l163.13,4.46c9.83,.27,18.78,5.76,23.46,14.41l77.7,143.51c4.68,8.65,4.4,19.14-.75,27.52l-85.43,139.05c-5.15,8.38-14.38,13.38-24.21,13.11l-163.13-4.46c-9.83-.27-18.78-5.76-23.46-14.41l-77.7-143.51c-4.68-8.65-4.4-19.14,.75-27.52l85.43-139.05c5.15-8.38,14.38-13.38,24.21-13.11Z"></path><path class="cls-43" d="M1490.45,484.25c5.71,.44,9.98,5.42,9.54,11.13l-1.9,24.81c-.44,5.71-5.42,9.98-11.13,9.54s-9.98-5.42-9.54-11.13l1.9-24.81c.44-5.71,5.42-9.98,11.13-9.54Z"></path><path class="cls-43" d="M1456.14,481.62c5.71,.44,9.98,5.42,9.54,11.13l-1.9,24.81c-.44,5.71-5.42,9.98-11.13,9.54-5.71-.44-9.98-5.42-9.54-11.13l1.9-24.81c.44-5.71,5.42-9.98,11.13-9.54Z"></path><path class="cls-41" d="M1401.48,432.43l2.17-3.53c7.17-11.68,20.03-18.64,33.73-18.26l150.65,4.12c13.7,.37,26.15,8.03,32.68,20.08l71.75,132.52c6.52,12.05,6.12,26.66-1.05,38.34l-47.59,77.45c4.1-14.44,11.43-37.43,15.7-51.67,3-10.03,13.6-40.19,10.41-45.86-31.2-55.48-63.72-113.46-68.57-122.7-9.67-18.42-20.3-17.8-38.7-19.42-16.71-1.47-105.9-6.18-161.17-11.08Z"></path><path class="cls-40" d="M1331.05,547.05c18.8,34.77,74.83,138.23,83.94,152.94,10.98,17.72,14.68,19.86,31.14,24.07,9.45,2.42,78.87,16.59,136.25,28.22-1.19,.08-2.39,.12-3.6,.09l-150.65-4.12c-13.7-.37-26.15-8.03-32.68-20.08l-71.75-132.52c-6.52-12.05-6.12-26.66,1.05-38.34l6.3-10.25Z"></path><path class="cls-43" d="M1501.51,461.4c17.05,2.48,30.48,24.62,15.07,17.75-15.42-6.87-22.13-6.12-32.19-3.85-10.07,2.27-5.67-17.2,17.13-13.89Z"></path><path class="cls-43" d="M1448.77,458.27c-15.14-.29-30.53,18.74-16.05,14.59,14.48-4.15,20.14-2.39,28.44,1.33,8.29,3.73,7.85-15.53-12.39-15.92Z"></path><g><path class="cls-40" d="M1319.35,599.26l6.89-29.6s73.94,53.69,184.74,52.29c110.79-1.41,160.15-49.6,176.1-58.77l10.84,22.84c-8.85,5.92-46.29,62.65-149.49,73.78l-38.44,2.42c-1.07,.02-2.12,.03-3.18,.04l23.64,82.76-2.7,5.94-20.29-.56-23.1-88.47c-110.33-4.7-153.65-54.25-165.02-62.69Z"></path><path class="cls-31" d="M1329.57,563.28c-9.83-3.67-29.5,24.07-17.3,33.13,12.2,9.06,68.6,52.97,197.98,50.38,129.37-2.59,183.16-52.77,193.04-59.38,9.88-6.61-4.5-39.72-20.45-30.56s-60.81,48.25-171.6,49.66c-110.79,1.41-181.67-43.23-181.67-43.23Z"></path><g class="cls-7"><g><polygon class="cls-26" points="1366.03 563.13 1312.03 611.25 1321.79 623.19 1384.01 576.02 1366.03 563.13"></polygon><polygon class="cls-26" points="1397.88 573.97 1352.13 630 1363.64 640.25 1417.67 583.87 1397.88 573.97"></polygon><polygon class="cls-26" points="1430.34 585.25 1396.01 648.92 1409.26 656.81 1451.64 591.23 1430.34 585.25"></polygon><polygon class="cls-26" points="1466.27 591.37 1443.45 660.01 1457.86 665.49 1488.28 593.59 1466.27 591.37"></polygon><polygon class="cls-26" points="1492.9 664.59 1508.09 667.24 1524.34 590.87 1502.31 592.87 1492.9 664.59"></polygon><polygon class="cls-26" points="1536.22 662.24 1551.58 663.56 1561.16 586.08 1539.38 589.97 1536.22 662.24"></polygon><polygon class="cls-26" points="1582.21 656.2 1597.63 655.82 1598.58 577.75 1577.37 584.03 1582.21 656.2"></polygon><polygon class="cls-26" points="1624.37 643.61 1639.7 641.98 1634.31 564.09 1613.68 572.07 1624.37 643.61"></polygon><polygon class="cls-26" points="1650.35 555.12 1666.43 625.64 1681.6 622.86 1670.31 545.6 1650.35 555.12"></polygon></g></g><polygon class="cls-31" points="1462.62 651.05 1426.04 741.16 1469.59 802.65 1517.05 746.82 1487.11 649.59 1462.62 651.05"></polygon><path class="cls-26" d="M1512.33,752.37l-77.69,.94,10.99,15.52c15.48,1.48,33.64,3.2,48.81,4.6l17.89-21.06Z"></path><path class="cls-26" d="M1431.37,728.05c23.3-.29,59.62-.75,79.55-1.13l-6.78-22.01-66.64,8.02-6.14,15.12Z"></path><path class="cls-26" d="M1443.94,697.08c16.58-2.49,37.85-5.68,55.22-8.34l-6.13-19.91-42.1,11.02-6.99,17.22Z"></path><path class="cls-43" d="M1508.63,606.54s11.65-.09,23.84-.79l-4.29,40.35s-15.09,1.06-28.51,.79c-18.5-.37-4.87-32.97-4.87-32.97l13.82-7.39Z"></path><path class="cls-43" d="M1427.98,598.8s-6.02,26.91-5.04,41.89c0,0,21.26,3.75,41.48,4.97,20.22,1.22,10.71-40.85-2.68-41.8-13.4-.95-33.76-5.06-33.76-5.06Z"></path><path class="cls-31" d="M1450.95,651.87c-6.16-16.64-16.11-46.74-3.66-50.18,12.45-3.44,46.24-3.54,58.05,.85,11.81,4.39-1.35,42.32-7.64,51.09-6.29,8.76-43.72,6.43-46.76-1.76Z"></path><path class="cls-26" d="M1445.49,635.72l64.58-23.37c-.15-4.91-1.51-8.61-4.73-9.8-4.22-1.57-11.26-2.56-19.13-3.04l-44.32,20.76c.72,4.88,2.05,10.24,3.59,15.45Z"></path><path class="cls-26" d="M1450.33,650.19c.21,.58,.42,1.14,.62,1.69,3.03,8.19,40.47,10.53,46.76,1.76,2.14-2.98,5.07-9.34,7.55-16.61l-54.93,13.16Z"></path></g><path class="cls-43" d="M1530.73,538.14c.64,7.47-14.14,18.96-65.18,18.63-6.3-.04-7.73-2.99-1.92-4.15,20.85-4.16,32.54-4.41,56.18-15.61,3.83-1.81,10.74-1.01,10.92,1.13Z"></path><path class="cls-40" d="M1596.61,721.46c-10.84,11.2-1.69,29.51-1.69,29.51h0c5.86-2.07,10.96-6.08,14.32-11.54l14.4-23.43s-16.19-5.73-27.03,5.47Z"></path><g><path class="cls-19" d="M1662.51,640.12h-.01c-5.84-12.79-20.2-19.89-34.24-16.17-15.69,4.16-25.04,20.25-20.88,35.94,1.96,7.41,6.59,13.4,12.57,17.22h0s13.1,10.91,19.48,18.06c6.42,7.19,7.02,12.38-19.1,25.21-26.12,12.82,8.48,19.1,14.56,16.86,6.08-2.24,51.64-18.05,53.21-37.52,1.56-19.47-21.21-52.74-25.58-59.6Z"></path><path class="cls-40" d="M1620.32,720.38c-4.75,2.33-7.48,4.44-8.75,6.33,6.43-2.32,21.23-7.98,34.53-15.38,17.58-9.79,13.24-25.37,1.18-35.96-9.95-8.74-27.54-34-33.4-42.6-6.36,7.12-9.13,17.2-6.5,27.12,1.96,7.41,6.59,13.4,12.57,17.22h0s13.1,10.91,19.48,18.06c6.42,7.19,7.02,12.38-19.1,25.21Z"></path><circle class="cls-12" cx="1620.23" cy="736.5" r="20.79"></circle></g></g></g><path class="cls-1" d="M1699.15,796.49v-244.71c0-283.72-230-513.72-513.72-513.72h-248.78c-91.33,0-165.37,74.04-165.37,165.37V796.49c0,91.33,74.04,165.37,165.37,165.37h597.13c91.33,0,165.37-74.04,165.37-165.37Z"></path></g></svg>